<?xml version="1.0" standalone="no"?>
<!DOCTYPE svg PUBLIC "-//W3C//DTD SVG 20010904//EN"
 "http://www.w3.org/TR/2001/REC-SVG-20010904/DTD/svg10.dtd">
<svg version="1.0" xmlns="http://www.w3.org/2000/svg"
 width="720.000000pt" height="737.000000pt" viewBox="0 0 720.000000 737.000000"
 preserveAspectRatio="xMidYMid meet">

<g transform="translate(0.000000,737.000000) scale(0.100000,-0.100000)"
fill="#000000" stroke="none">
<path d="M4133 6949 c-46 -9 -88 -28 -148 -69 -40 -27 -44 -28 -215 -32 -239
-6 -263 -16 -437 -182 -216 -206 -354 -405 -419 -602 -95 -291 -142 -712 -99
-889 11 -45 14 -131 15 -338 0 -304 11 -416 55 -552 34 -106 146 -329 245
-490 l81 -130 -6 -110 c-8 -134 -33 -217 -104 -335 -28 -46 -63 -114 -78 -150
-15 -36 -55 -99 -88 -141 -33 -41 -87 -110 -120 -153 -46 -60 -80 -91 -145
-134 -47 -31 -89 -60 -95 -64 -5 -5 -41 -31 -80 -59 -215 -158 -438 -399 -615
-664 -41 -60 -102 -149 -137 -196 -67 -92 -70 -99 -50 -99 15 1 98 106 191
243 135 200 207 291 336 429 69 75 211 201 284 255 105 76 211 142 218 135 4
-4 17 -64 29 -132 22 -132 29 -151 89 -240 50 -73 116 -214 135 -286 23 -89
25 -93 45 -99 29 -9 58 11 81 56 11 22 41 68 66 102 54 74 85 134 106 203 46
154 106 201 272 215 93 7 225 35 307 64 52 18 62 31 163 215 32 58 72 123 89
145 27 35 123 151 151 181 84 93 187 224 247 315 70 107 164 286 173 331 l7
33 -20 -20 c-11 -11 -42 -63 -69 -115 -97 -187 -211 -357 -318 -474 -9 -10
-118 -134 -181 -208 -13 -15 -24 -30 -24 -34 0 -3 -11 -20 -25 -38 -14 -18
-25 -37 -25 -41 0 -5 -7 -16 -15 -25 -8 -9 -36 -59 -63 -110 -35 -70 -55 -98
-80 -112 -40 -22 -229 -68 -281 -68 -50 0 -154 -19 -165 -31 -6 -5 -17 -9 -25
-9 -9 0 -27 -11 -41 -23 -55 -49 -81 -92 -106 -173 -20 -67 -44 -112 -111
-212 -47 -70 -90 -128 -97 -130 -7 -2 -16 19 -23 51 -6 29 -34 104 -62 166
-28 62 -51 121 -51 130 0 9 12 33 26 52 60 81 103 166 114 227 14 80 14 268 0
394 l-11 98 42 77 c23 43 61 112 85 153 52 92 72 153 82 249 4 41 12 76 18 78
6 2 33 -17 60 -43 73 -68 160 -122 232 -144 79 -25 204 -26 287 -4 107 29 118
32 267 83 201 68 362 150 483 246 59 47 85 59 98 46 19 -19 27 -12 27 22 0 33
4 41 62 142 120 208 177 395 178 576 0 37 9 95 19 130 56 182 74 281 68 374
-7 111 -41 272 -72 345 -24 56 -51 131 -99 280 -58 178 -104 258 -210 370
-100 106 -194 175 -316 232 -300 140 -500 204 -599 193 -118 -13 -341 -136
-454 -251 -32 -32 -79 -91 -104 -131 -85 -138 -190 -409 -239 -623 -32 -142
-67 -252 -79 -251 -5 0 -13 10 -17 23 -10 37 -9 325 2 423 24 211 94 466 163
600 93 179 369 489 496 559 60 32 150 45 318 46 l123 0 62 38 c110 67 162 75
320 47 198 -34 419 -130 557 -242 75 -60 209 -204 210 -226 1 -5 12 -23 25
-40 27 -35 146 -269 146 -286 0 -6 11 -34 24 -63 57 -125 78 -231 112 -563 45
-449 44 -911 -6 -1325 -36 -303 -38 -446 -10 -685 27 -231 27 -401 -1 -491
-23 -77 -83 -195 -105 -207 -8 -4 -14 -14 -14 -22 0 -7 -3 -15 -7 -17 -19 -8
-103 -118 -129 -168 -20 -38 -30 -73 -32 -117 l-4 -64 72 -69 c39 -39 78 -70
86 -70 8 0 14 -4 14 -9 0 -5 14 -15 32 -22 38 -15 99 -75 148 -143 78 -108
126 -145 85 -66 -52 100 -137 192 -230 248 -86 51 -137 95 -159 136 -18 34
-18 38 -2 103 10 39 29 83 45 103 158 199 224 307 241 399 19 101 12 346 -20
671 -12 122 -9 167 42 640 25 229 35 650 19 815 -5 61 -17 196 -25 300 -22
256 -33 345 -57 444 -19 74 -74 232 -99 279 -4 10 -23 49 -40 87 -80 172 -193
327 -326 445 -183 162 -599 304 -791 269z m-213 -586 c153 -44 370 -137 515
-221 135 -78 307 -265 349 -380 37 -100 50 -137 92 -262 25 -74 59 -172 74
-218 40 -115 53 -210 48 -343 -3 -84 -10 -130 -26 -174 -29 -77 -52 -188 -52
-246 0 -110 -63 -367 -115 -470 -90 -178 -152 -252 -287 -341 -172 -114 -329
-182 -638 -275 -166 -50 -363 -27 -460 53 -100 83 -172 161 -202 219 -16 33
-56 103 -88 155 -123 204 -202 377 -237 520 -15 65 -18 120 -18 400 l0 326 31
69 c17 39 34 78 37 88 13 37 236 14 313 -34 17 -10 59 -25 95 -34 128 -30 175
-14 157 53 -21 80 -94 122 -292 172 -92 23 -97 23 -215 -7 -23 -6 -23 -4 -17
33 8 41 98 317 120 368 46 105 62 138 99 201 54 93 133 174 228 235 152 97
296 153 369 142 19 -2 73 -16 120 -29z m-625 -1002 c126 -39 160 -59 175 -106
7 -20 9 -39 6 -42 -11 -11 -162 24 -218 51 -65 31 -172 56 -240 56 -73 0 -63
36 19 66 54 20 141 12 258 -25z m-281 -2641 c0 -214 -6 -239 -86 -358 -55 -82
-73 -88 -100 -32 -16 34 -50 184 -63 282 -6 46 -5 49 47 110 29 35 82 101 117
147 62 81 65 83 75 60 5 -13 10 -107 10 -209z"/>
<path d="M4021 5255 c-72 -23 -112 -75 -93 -124 7 -19 17 -20 307 -24 307 -5
386 -14 484 -53 23 -9 44 -14 48 -11 12 13 -109 132 -178 175 -59 36 -172 52
-356 51 -112 0 -183 -5 -212 -14z m474 -40 c73 -21 124 -46 150 -75 l20 -23
-55 9 c-30 4 -186 8 -347 9 -160 0 -295 3 -298 7 -4 4 -4 19 -1 33 12 49 98
65 316 60 104 -2 175 -9 215 -20z"/>
<path d="M3078 5178 c-34 -20 -54 -45 -45 -55 3 -2 26 8 52 22 27 14 65 25 86
25 43 0 69 8 69 21 0 5 -28 9 -62 9 -46 0 -73 -6 -100 -22z"/>
<path d="M3284 5155 c6 -17 -9 -21 -106 -29 -141 -11 -183 -72 -102 -148 52
-49 122 -68 244 -68 60 0 121 5 136 10 23 9 26 14 20 41 -7 37 -40 86 -64 93
-9 4 -34 31 -55 61 -25 36 -45 55 -59 55 -14 0 -18 -5 -14 -15z m57 -76 c5 -8
8 -41 7 -74 l-3 -60 -39 -3 c-58 -5 -82 4 -95 37 -14 31 -5 101 13 114 17 12
107 1 117 -14z m-166 -51 c-4 -35 -9 -65 -11 -67 -8 -9 -104 69 -104 85 0 12
68 44 93 44 l29 0 -7 -62z m259 -40 c23 -32 20 -38 -19 -38 -36 0 -42 10 -29
44 9 23 30 20 48 -6z"/>
<path d="M3264 5049 c-8 -14 21 -43 35 -35 8 5 8 13 1 27 -12 21 -25 25 -36 8z"/>
<path d="M4190 5020 c0 -5 5 -12 10 -15 15 -10 2 -25 -22 -25 -24 0 -81 -33
-123 -72 -16 -15 -39 -34 -50 -43 -17 -13 -18 -16 -5 -25 8 -5 33 -10 55 -10
22 0 62 -7 89 -15 65 -20 227 -20 293 0 65 19 163 64 163 74 0 17 -82 64 -166
95 -89 33 -244 56 -244 36z m199 -65 c2 -10 -2 -43 -9 -72 l-11 -53 -60 0
c-55 0 -60 2 -69 26 -11 29 -13 84 -4 109 5 13 19 15 78 13 61 -3 71 -6 75
-23z m-198 -55 c3 -19 8 -42 10 -50 2 -8 0 -15 -6 -14 -27 3 -125 37 -125 44
0 14 75 59 95 57 14 -1 21 -12 26 -37z m314 23 c19 -9 35 -21 35 -25 0 -9
-102 -58 -122 -58 -10 0 -4 72 8 92 8 13 40 9 79 -9z"/>
<path d="M4290 4921 c0 -32 24 -48 46 -30 12 10 10 16 -11 35 -33 30 -35 30
-35 -5z"/>
<path d="M3387 4456 c-25 -37 -30 -72 -17 -112 15 -43 101 -132 166 -170 51
-30 75 -28 171 17 34 16 86 34 115 40 98 21 147 58 148 112 0 33 -24 82 -44
90 -23 9 -25 -2 -10 -45 8 -22 14 -49 14 -59 0 -24 -49 -55 -100 -63 -20 -3
-78 -22 -128 -41 -50 -19 -100 -35 -110 -35 -22 0 -91 48 -149 104 -36 34 -43
46 -43 79 0 21 7 51 15 66 22 44 -1 58 -28 17z"/>
<path d="M3304 4108 c-3 -5 1 -17 9 -26 8 -9 22 -43 31 -75 14 -47 28 -69 76
-117 88 -88 166 -107 307 -74 84 19 157 58 245 128 37 30 73 56 80 59 22 8 -2
22 -82 50 -61 21 -100 27 -210 31 -74 3 -166 9 -205 15 -106 15 -244 20 -251
9z m226 -38 c25 -6 125 -14 223 -20 98 -5 188 -15 200 -22 21 -11 21 -12 -13
-21 -19 -5 -114 -7 -210 -4 -146 4 -184 8 -232 26 -32 11 -65 21 -74 21 -32 0
-6 -25 48 -46 106 -41 153 -47 297 -40 186 8 201 -5 75 -67 -91 -46 -212 -66
-295 -48 -44 9 -65 21 -98 54 -63 62 -99 145 -74 170 9 10 100 8 153 -3z"/>
<path d="M2750 4841 c0 -26 16 -35 24 -15 10 25 7 34 -9 34 -8 0 -15 -9 -15
-19z"/>
<path d="M2690 4727 c0 -7 -19 -44 -41 -82 -23 -39 -58 -104 -79 -145 -43 -84
-170 -403 -170 -427 0 -38 28 2 63 88 95 238 125 302 190 422 63 116 76 157
47 157 -5 0 -10 -6 -10 -13z"/>
<path d="M2253 3774 c-82 -112 -117 -129 -398 -194 -195 -46 -268 -98 -392
-277 -52 -75 -60 -93 -40 -93 8 0 37 33 65 73 115 167 183 216 352 257 236 57
275 70 328 107 61 42 142 135 142 164 0 31 -14 22 -57 -37z"/>
<path d="M3896 2909 c-14 -11 -24 -24 -21 -29 8 -12 85 21 85 37 0 20 -34 16
-64 -8z"/>
<path d="M1106 2697 c-22 -33 -91 -203 -101 -247 -8 -36 -30 -90 -114 -282
-29 -69 -58 -154 -68 -204 -16 -81 -20 -89 -73 -148 -71 -78 -92 -114 -119
-201 -50 -157 -96 -267 -128 -304 -33 -39 -41 -61 -23 -61 15 0 91 101 112
150 11 25 37 100 59 167 42 128 63 167 132 240 55 58 55 60 72 147 15 76 47
165 109 298 20 42 54 132 77 200 23 68 54 152 71 187 19 42 26 67 20 73 -7 7
-16 2 -26 -15z"/>
<path d="M5340 1890 c-112 -39 -157 -63 -204 -107 -42 -40 -43 -49 -11 -163
19 -70 19 -123 -1 -190 -21 -72 -62 -107 -182 -160 -141 -62 -186 -98 -221
-175 -10 -22 -32 -69 -49 -105 -73 -155 -125 -298 -197 -545 -15 -49 -47 -151
-72 -225 -76 -229 -74 -220 -54 -220 14 0 32 42 84 203 36 111 80 249 97 307
48 158 97 300 131 376 121 271 120 269 276 345 69 34 143 77 164 96 68 61 84
161 52 325 -16 85 -16 88 3 109 61 67 290 137 400 122 45 -6 56 -13 126 -86
43 -44 78 -84 78 -88 0 -5 10 -20 22 -34 46 -53 119 -190 154 -288 29 -83 54
-275 53 -417 0 -229 -43 -488 -115 -695 -20 -55 -46 -130 -59 -166 -13 -37
-28 -76 -34 -88 -10 -18 -9 -21 9 -21 11 0 23 8 26 18 3 9 16 44 29 77 13 33
34 92 48 130 144 404 174 821 83 1151 -44 161 -223 423 -350 516 -35 25 -47
28 -120 28 -64 0 -99 -7 -166 -30z"/>
<path d="M2370 1708 c-11 -24 -20 -53 -20 -64 0 -28 24 -47 50 -39 23 7 27 25
6 25 -24 0 -28 17 -11 56 30 72 7 92 -25 22z"/>
</g>
</svg>
