<?xml version="1.0" encoding="UTF-8" standalone="no"?>
<svg
   xmlns:dc="http://purl.org/dc/elements/1.1/"
   xmlns:cc="http://creativecommons.org/ns#"
   xmlns:rdf="http://www.w3.org/1999/02/22-rdf-syntax-ns#"
   xmlns:svg="http://www.w3.org/2000/svg"
   xmlns="http://www.w3.org/2000/svg"
   xmlns:sodipodi="http://sodipodi.sourceforge.net/DTD/sodipodi-0.dtd"
   xmlns:inkscape="http://www.inkscape.org/namespaces/inkscape"
   version="1.0"
   width="720.000000pt"
   height="737.000000pt"
   viewBox="0 0 720.000000 737.000000"
   preserveAspectRatio="xMidYMid meet"
   id="svg44"
   sodipodi:docname="BhavyaFull.svg"
   inkscape:version="1.0.2 (1.0.2+r75+1)">
  <metadata
     id="metadata50">
    <rdf:RDF>
      <cc:Work
         rdf:about="">
        <dc:format>image/svg+xml</dc:format>
        <dc:type
           rdf:resource="http://purl.org/dc/dcmitype/StillImage" />
        <dc:title></dc:title>
      </cc:Work>
    </rdf:RDF>
  </metadata>
  <defs
     id="defs48" />
  <sodipodi:namedview
     pagecolor="#ffffff"
     bordercolor="#666666"
     borderopacity="1"
     objecttolerance="10"
     gridtolerance="10"
     guidetolerance="10"
     inkscape:pageopacity="0"
     inkscape:pageshadow="2"
     inkscape:window-width="1366"
     inkscape:window-height="768"
     id="namedview46"
     showgrid="false"
     inkscape:zoom="0.5571187"
     inkscape:cx="456.73816"
     inkscape:cy="498.54118"
     inkscape:window-x="0"
     inkscape:window-y="0"
     inkscape:window-maximized="1"
     inkscape:current-layer="svg44" />
  <path
     style="fill:none;stroke:#000000;stroke-width:0.75px;stroke-linecap:butt;stroke-linejoin:miter;stroke-opacity:1"
     d="m 75.875259,587.65446 c 8.93058,-11.91462 13.111107,-22.06626 13.111107,-22.06626 l 3.75873,-11.88925 2.970983,-9.03981 5.062491,-6.95575 7.59866,-9.41011 1.71441,-4.15819 3.8525,-11.3893 4.84269,-15.41147 8.20854,-18.13909 4.87347,-13.72605 6.41824,-16.16325 16.52589,-33.91618 19.16841,-29.10146 c 0,0 9.55252,-24.11097 43.15227,-29.37302 33.59977,-5.26204 40.97679,-24.3051 40.97679,-24.3051 l 16.70828,-39.80208 c 0,0 10.90931,-27.0083 17.81863,-40.33238 6.90933,-13.32407 13.79007,-25.50793 13.79007,-25.50793 l 7.70847,-25.38529 10.69146,-25.117 c 0,0 9.83168,-9.81117 30.79834,-2.02816 20.96666,7.78299 20.0632,10.43793 20.0632,10.43793 0,0 6.87802,10.06608 -0.76223,8.92409 -7.64023,-1.142 -28.47399,-7.4006 -28.47399,-7.4006 l -18.07678,-3.10908 -3.38932,1.42365 6.73163,16.34637 c 0,0 10.06427,-10.06768 21.34178,-6.22852 11.27751,3.83916 13.97906,12.9587 13.97906,12.9587 l 6.97313,6.91897 1.8144,4.76068 -5.53815,1.57311 -15.8334,1.13653 -6.22794,-2.1139 c 0,0 -4.61463,-6.98694 -0.87921,-12.8816 3.73544,-5.89467 9.13065,-6.6481 9.13065,-6.6481 0,0 6.72264,0.92149 9.47235,6.70079 2.74971,5.7793 -3.03267,11.62334 -3.03267,11.62334 l -15.49968,1.39485 -12.45345,-7.55229 c 0,0 -4.8062,-7.09286 3.32988,-9.05357 8.13606,-1.96072 13.26756,-2.55828 13.26756,-2.55828 l 9.85809,-0.30786 c 9.82074,8.14853 18.51357,9.24241 29.45008,24.45281 -1.57364,19.01972 -14.48452,29.62877 -22.27664,44.03524 0,0 -5.04093,9.83923 2.25978,17.26219 7.3007,7.42296 13.88718,10.17603 13.88718,10.17603 0,0 3.08577,2.89728 7.75994,0.20472 4.67417,-2.69257 20.70549,-8.35815 20.70549,-8.35815 0,0 14.8122,-0.7842 9.24358,-15.02669 -5.56863,-14.24248 -11.13576,-41.00506 -11.13576,-41.00506 4.47576,-14.00257 14.51019,-4.9006 22.39799,-4.7211 l 16.44052,3.91165 19.91568,-0.62716 13.2011,-4.62564 3.9021,-2.88493 -10.499,-4.99555 -7.73704,-3.2579 -7.82606,-1.55896 -9.35839,-2.21053 -2.14837,-0.13494 1.96244,2.7258 -2.72724,4.20791 0.59268,3.0205 0.99186,5.48432 4.95309,4.4804 12.03321,-0.5125 0.83073,-5.64897 -0.92135,-7.31634 c 0,0 -0.40432,-3.60111 -9.60363,-3.3588 -9.19931,0.24231 -16.37083,5.07048 -16.37083,5.07048 l -11.59866,7.34674 c -8.99523,-12.39721 -9.58948,-20.74013 -7.07397,-27.58228 0,0 -3.1536,-9.72579 19.34331,-11.14642 22.49691,-1.42064 33.64704,0.5494 33.64704,0.5494 0,0 14.63026,4.70724 19.71769,10.71489 5.08742,6.00767 -69.15082,1.70817 -69.15082,1.70817 0,0 61.21154,-0.82377 69.47933,2.59024 8.26779,3.41402 33.38518,-1.54301 33.38518,-1.54301 0,0 2.26348,16.30816 0.76503,23.385 -1.49845,7.07684 -7.03701,27.13 -7.03701,27.13 l -0.99428,9.54799 -2.42697,19.96158 -4.71026,18.17429 -12.23807,24.20087 -3.99657,7.06615 0.298,5.31747 -0.79909,1.19392 -1.17033,-1.82336 -3.88219,-0.0734 -3.88064,3.37372 -20.36831,14.19882 c 0,0 -32.5168,13.55786 -38.42049,15.02932 -5.90368,1.47146 -30.54176,6.73755 -30.54176,6.73755 l -7.78528,-0.27598 -9.9614,-2.1821 -12.67569,-6.4059 -10.40893,-9.11517 -12.0671,-16.30764 -8.75041,-14.66687 -7.65233,-13.33949 30.58175,-10.30508 32.39797,1.85699 21.14989,1.9326 12.41895,3.37234 5.07462,1.93093 c 0,0 -8.55414,9.37653 -17.44088,13.65625 -8.88673,4.27973 -23.47304,6.70554 -23.47304,6.70554 0,0 -18.22885,-1.16517 -24.07656,-14.09149 -5.84772,-12.92633 -5.81263,-13.84188 -5.81263,-13.84188 0,0 8.92873,7.47661 23.03401,10.1073 14.10528,2.6307 28.51707,0.18729 28.51707,0.18729 l 14.59574,-1.74315 5.00363,-1.46048 c 0,0 -61.70878,-11.62803 -68.58472,-7.58878 -6.87594,4.03925 -33.62917,7.60425 -33.62917,7.60425 l -13.90634,-34.01697 -3.14185,-22.37694 0.80046,-20.70432 -0.69484,-24.46228 -3.34298,-22.05569 0.47025,-24.9479 3.40898,-25.50473 4.59385,-21.93631 7.22226,-19.935925 11.95923,-20.39415 17.73582,-19.852684 15.28159,-15.052715 10.37312,-7.458627 16.22478,-3.219695 h 21.42975 l 2.81903,-0.0048 16.39242,-8.261407 c 0,0 8.69162,-4.753868 22.46922,-0.783551 13.7776,3.970317 32.28833,9.934782 32.28833,9.934782 l 23.1252,12.193117 13.54064,13.257569 16.00931,20.346801 7.15155,16.41758 11.43191,27.849445 3.39807,15.95469 2.03217,16.03744 1.67958,15.35179 1.57898,20.17329 1.40645,57.36009 -2.06733,34.58016 -2.38942,21.89999 -2.4569,20.13275 -0.15361,23.09019 1.67603,19.20454 2.56353,28.09252 -1.25392,20.11875 -6.78647,16.11578 -9.10109,13.54483 -8.0366,11.04545 c 0,0 -11.96056,18.19281 1.47219,27.97457 13.43274,9.78175 19.70007,14.00823 19.70007,14.00823 l 12.26878,15.55166 3.24426,4.62419 7.74458,8.98609 8.1002,9.06974 14.57474,17.90465 6.75171,12.30999 5.42504,14.48955 3.19648,18.98337 0.70936,16.32781 -0.44247,19.16573 -3.24263,24.96591 -4.86778,19.74556 -6.68213,20.01957 -6.45418,15.743 -144.63083,-0.433 8.94636,-27.2012 3.41887,-9.0775 6.42725,-19.11079 5.84813,-19.63613 5.94242,-13.76981 8.23977,-18.53745 5.55025,-8.19053 5.94134,-4.01857 15.14339,-8.44793 c 0,0 15.02953,-4.6432 14.62941,-22.29435 -0.40011,-17.65114 -2.158,-23.05965 -2.158,-23.05965 0,0 -2.7955,-7.32499 16.93654,-12.91086 19.73202,-5.58588 -26.14442,-50.97227 -26.14442,-50.97227 -6.65019,-26.75886 2.45143,-29.48582 7.42516,-38.51053 15.79342,-12.48184 12.93478,-34.73661 13.27657,-55.31448 0,0 -0.5773,-126.53799 5.21348,-152.10059 5.79078,-25.56259 -7.21639,-15.58931 -7.21639,-15.58931 -9.92614,27.75282 -14.24048,-10.86408 -22.4869,-15.26416 l -11.26926,-40.18202 -6.89442,-18.78123 -5.08218,-11.23527 -6.74083,-8.97167 -13.47676,-13.73781 -15.98263,-10.588815 -22.63317,-10.89828 -18.21309,-6.81992 -18.3507,-5.36319 -4.84097,-0.31615 -12.59294,3.48399 -18.86917,9.86851 -12.06661,9.27759 c 0,0 -8.77933,8.256465 -13.01091,15.590055 -4.23159,7.33359 -10.41391,20.39104 -10.41391,20.39104 l -8.00205,22.38435 -4.9229,18.633 -12.15514,42.17015 0.7075,50.60787 9.52229,31.98642 12.24908,21.93288 18.86613,33.87076 -3.78437,14.98555 -3.23224,13.53215 -4.56551,9.20051 -9.02227,16.28774 -4.31164,8.06463 2.65504,8.3397 0.0947,15.00493 v 16.3198 l -1.32806,9.94014 -5.80781,12.12784 -6.29449,7.84572 -1.48535,3.88831 6.99137,15.33734 5.05351,13.91938 2.85158,7.27219 5.70462,-4.95871 10.1823,-15.97403 8.35974,-17.62383 c 0,0 3.82225,-13.02413 16.97886,-15.73865 13.15661,-2.71451 22.22138,-3.99202 22.22138,-3.99202 l 8.20633,-1.61488 13.29759,-3.93532 c 0,0 7.80767,-8.57949 9.25615,-13.50951 1.44847,-4.93002 10.22446,-16.63423 10.22446,-16.63423 l 6.22649,-9.592 8.4847,-9.42325 14.91953,-18.09102 11.71288,-16.05604 13.38971,-22.08371 5.59897,-12.43886 -1.96579,2.40317 c -6.81165,12.32722 -14.81776,27.05085 -14.81776,27.05085 l -13.36456,18.90284 -23.09749,27.28912 c 0,0 -9.70615,12.01349 -11.89985,17.68281 -2.19371,5.66931 -13.55349,23.26989 -13.55349,23.26989 0,0 -3.21101,5.60764 -30.60908,9.13688 -27.39807,3.52924 -21.60962,4.04856 -21.60962,4.04856 0,0 -6.0098,3.74829 -8.18215,10.2677 -2.17234,6.51941 -4.25797,13.08463 -4.25797,13.08463 l -8.71724,15.22927 -10.5444,14.68793 -3.02484,-0.22638 -7.57197,-19.74031 -11.51458,-23.39637 -3.33289,-3.83259 -3.12906,-16.37638 -1.75871,-10.41085 c 0,0 1.48472,-6.18416 -9.22409,0.75255 -10.70883,6.93671 -31.02854,23.08237 -31.02854,23.08237 0,0 -14.84948,13.22991 -18.43762,18.75996 -3.58814,5.53007 -15.57423,19.16688 -15.57423,19.16688 l -8.99968,11.49205 -17.09544,24.72 -3.07828,6.07315 c 54.55397,-27.6682 -18.38119,36.00854 -18.38119,36.00854 0,0 -35.60733,-28.08397 -38.96242,-20.1688 -7.98873,18.8466 -30.27351,-30.67072 -65.185809,17.7223"
     id="path52"
     sodipodi:nodetypes="ccccccccccccccsccscccscsccccsccccccscscccsccccscscscccccccccccccccccccscccscscscsccccccccccccscccccccccccccscscscccsccccccccccccccccccscccccccccccccccccccccscccccccccccccccccccccccccscscccscccccccccccccccsccccccccccccccccccccccccccscccscccccccccccscscscccccccccscscccccsc" />
</svg>
