<?xml version="1.0" encoding="UTF-8" standalone="no"?>
<svg
   xmlns:dc="http://purl.org/dc/elements/1.1/"
   xmlns:cc="http://creativecommons.org/ns#"
   xmlns:rdf="http://www.w3.org/1999/02/22-rdf-syntax-ns#"
   xmlns:svg="http://www.w3.org/2000/svg"
   xmlns="http://www.w3.org/2000/svg"
   xmlns:sodipodi="http://sodipodi.sourceforge.net/DTD/sodipodi-0.dtd"
   xmlns:inkscape="http://www.inkscape.org/namespaces/inkscape"
   version="1.0"
   width="212.000000pt"
   height="221.000000pt"
   viewBox="0 0 212.000000 221.000000"
   preserveAspectRatio="xMidYMid meet"
   id="svg238"
   sodipodi:docname="Newton.svg"
   inkscape:version="1.0.2 (1.0.2+r75+1)">
  <metadata
     id="metadata244">
    <rdf:RDF>
      <cc:Work
         rdf:about="">
        <dc:format>image/svg+xml</dc:format>
        <dc:type
           rdf:resource="http://purl.org/dc/dcmitype/StillImage" />
      </cc:Work>
    </rdf:RDF>
  </metadata>
  <defs
     id="defs242" />
  <sodipodi:namedview
     pagecolor="#ffffff"
     bordercolor="#666666"
     borderopacity="1"
     objecttolerance="10"
     gridtolerance="10"
     guidetolerance="10"
     inkscape:pageopacity="0"
     inkscape:pageshadow="2"
     inkscape:window-width="1366"
     inkscape:window-height="768"
     id="namedview240"
     showgrid="false"
     inkscape:zoom="3.151014"
     inkscape:cx="397.29219"
     inkscape:cy="122.61731"
     inkscape:window-x="0"
     inkscape:window-y="0"
     inkscape:window-maximized="1"
     inkscape:current-layer="svg238" />
  <g
     transform="matrix(0.1,0,0,-0.1,0.08956889,221.89291)"
     fill="#000000"
     stroke="none"
     id="g236">
    <path
       d="m 1015,2191 c -11,-5 -35,-23 -54,-40 -24,-22 -43,-31 -67,-31 -45,0 -108,-32 -136,-70 -12,-17 -30,-30 -40,-30 -29,0 -105,-77 -124,-126 -12,-33 -15,-60 -11,-105 9,-85 -7,-121 -72,-154 -65,-33 -84,-61 -80,-122 2,-36 -2,-57 -19,-83 -25,-40 -29,-113 -10,-184 14,-52 4,-71 -43,-81 -16,-4 -45,-21 -64,-40 -30,-27 -35,-39 -35,-76 0,-25 9,-60 20,-81 17,-32 17,-37 3,-42 -22,-9 -62,20 -78,56 l -13,31 -7,-24 c -13,-40 -9,-141 8,-181 28,-65 100,-132 192,-177 99,-48 141,-52 203,-16 33,19 40,20 33,7 C 589,564 469,485 337,435 259,406 138,347 96,317 64,294 10,214 10,191 c 1,-9 12,4 25,29 13,25 36,57 52,72 32,30 202,117 278,142 75,24 199,100 234,143 61,76 127,169 139,196 11,26 49,40 39,14 -22,-58 -62,-346 -72,-517 -3,-58 -8,-120 -11,-139 -5,-30 -4,-33 9,-23 10,9 13,24 10,50 -10,77 41,513 71,602 13,38 35,42 69,12 16,-14 17,-14 12,0 -8,21 -49,38 -89,38 -33,0 -33,1 -34,46 -1,25 -4,54 -7,63 -5,17 29,81 43,81 5,0 17,-21 27,-47 10,-27 40,-94 67,-150 55,-112 57,-147 13,-180 -19,-14 -28,-37 -40,-96 -9,-44 -21,-90 -26,-104 -18,-49 -2,-33 21,19 13,29 24,75 24,101 2,36 7,53 23,65 54,44 55,86 2,186 -61,117 -89,198 -82,240 l 6,36 51,-48 c 28,-27 85,-71 125,-98 64,-42 81,-49 130,-51 85,-3 116,6 159,43 71,61 57,36 -34,-58 -48,-51 -110,-106 -137,-122 -27,-16 -61,-45 -75,-65 -15,-20 -55,-57 -91,-81 -36,-25 -67,-52 -70,-60 -2,-8 12,0 32,17 21,18 50,39 65,47 16,8 46,35 66,61 36,44 83,82 90,74 2,-2 6,-16 10,-31 6,-25 1,-29 -54,-59 -33,-17 -57,-35 -55,-39 6,-10 -90,-157 -212,-324 -52,-70 -92,-130 -89,-133 5,-6 166,216 264,364 68,104 80,117 123,135 45,19 47,22 38,46 -12,31 12,70 100,159 75,78 137,123 166,123 20,0 23,-6 28,-67 4,-47 1,-85 -10,-122 l -16,-55 29,-23 c 16,-13 55,-38 87,-56 51,-28 56,-33 40,-44 -9,-7 -25,-13 -36,-13 -29,0 -10,-19 32,-30 23,-6 55,-7 77,-2 33,7 54,2 140,-33 56,-23 122,-54 149,-69 49,-29 125,-99 164,-151 18,-25 20,-25 10,-5 -40,84 -161,176 -301,230 -86,33 -115,50 -85,50 34,0 96,32 103,53 4,12 19,37 35,54 32,37 43,80 43,178 1,87 -19,132 -101,235 -84,104 -98,134 -82,172 16,40 -3,145 -40,219 l -27,54 22,55 c 37,90 33,119 -27,175 -40,38 -55,46 -75,41 -23,-6 -24,-5 -24,53 v 60 l -80,80 c -51,51 -93,84 -117,92 -21,6 -49,20 -62,30 -14,11 -40,19 -62,19 -24,0 -52,9 -75,25 -38,26 -98,32 -139,16 z m 135,-26 c 20,-15 47,-25 66,-25 51,0 80,-16 94,-51 12,-28 11,-36 -3,-60 -10,-19 -12,-31 -5,-35 17,-11 58,-107 58,-139 0,-40 -25,-74 -66,-91 -39,-16 -104,-19 -104,-4 0,6 6,10 14,10 7,0 19,6 25,14 9,11 3,12 -36,9 -28,-3 -65,2 -88,10 l -40,15 27,10 c 63,25 42,63 -24,45 -24,-6 -45,-10 -47,-7 -9,9 37,60 70,76 19,10 27,18 19,18 -27,0 -79,-39 -96,-72 -21,-41 -27,-45 -86,-53 -68,-10 -78,-23 -78,-104 0,-77 -20,-141 -74,-244 -40,-77 -42,-93 -20,-157 23,-65 13,-139 -25,-193 -50,-69 -54,-98 -26,-174 26,-69 33,-152 15,-197 -14,-37 -74,-100 -131,-137 -43,-27 -56,-31 -92,-26 -53,7 -158,58 -214,103 -59,48 -93,122 -93,202 v 64 l 29,-31 c 31,-33 61,-40 80,-18 8,10 6,23 -9,52 -42,81 -17,139 77,181 l 55,24 -6,42 c -17,107 -17,155 -2,191 8,21 20,37 26,37 8,0 9,15 4,45 -9,64 8,97 64,126 26,13 57,40 70,59 21,31 23,42 17,105 -6,64 -4,74 22,125 25,48 80,100 104,100 5,0 10,-19 10,-42 l 2,-43 6,47 c 10,72 87,138 161,138 27,0 30,-2 20,-19 -5,-11 -10,-26 -10,-33 0,-7 9,5 19,27 45,98 147,135 221,80 z m 302,-157 82,-81 2,-59 c 1,-42 7,-67 21,-85 21,-29 43,-41 43,-24 0,6 -6,11 -14,11 -17,0 -29,27 -15,36 12,7 84,-41 105,-70 21,-30 17,-67 -12,-134 l -26,-60 26,-44 c 39,-66 60,-172 46,-224 -15,-51 -12,-57 81,-177 78,-101 114,-183 104,-237 -3,-19 -6,-50 -6,-69 0,-39 -18,-78 -48,-105 -12,-11 -21,-24 -21,-31 0,-27 -29,-46 -97,-65 -40,-11 -96,-20 -124,-20 h -52 l 34,23 c 63,42 44,112 -46,167 -19,12 -44,38 -57,58 -23,37 -29,111 -30,341 0,56 24,88 93,123 50,25 59,37 14,19 -11,-5 -28,-4 -38,1 -17,9 -17,10 3,35 30,39 27,96 -7,123 -37,28 -52,57 -54,100 -1,21 -3,26 -6,14 -4,-19 -8,-20 -66,-12 -64,9 -123,3 -144,-13 -8,-7 -15,-4 -23,8 -10,16 -10,16 -5,-4 16,-67 11,-64 62,-37 60,32 123,32 157,2 l 25,-23 -8,-115 c -17,-241 -95,-415 -213,-476 -14,-8 -58,-15 -96,-16 -64,-1 -75,2 -123,32 -85,53 -189,140 -205,173 -9,16 -19,72 -23,125 -5,57 -14,110 -24,129 -9,18 -17,38 -17,45 0,7 23,62 52,123 47,98 53,119 58,195 6,98 11,110 48,110 15,0 42,4 60,9 22,7 32,6 32,-2 0,-6 6,-4 13,5 13,17 95,43 105,34 8,-9 -3,-17 -43,-30 -46,-16 -32,-30 51,-50 32,-8 50,-15 39,-15 -20,-2 -20,-2 -1,-16 23,-18 90,-20 134,-4 62,21 152,-49 152,-119 0,-27 3,-33 10,-22 22,35 -21,110 -81,140 l -39,21 16,31 c 21,40 14,94 -20,160 -20,37 -23,54 -16,68 6,10 10,28 10,39 0,42 39,22 122,-61 z m -165,-474 c -27,-14 -51,-23 -54,-20 -10,10 9,26 40,35 58,17 63,11 14,-15 z m 220,-86 c 31,-29 31,-77 -2,-108 -22,-21 -23,-25 -10,-40 13,-15 12,-19 -14,-37 l -28,-22 4,72 c 5,98 13,157 20,157 4,0 17,-10 30,-22 z M 792,1053 c -4,-16 -21,-46 -38,-67 l -32,-38 -11,33 c -19,54 -13,87 24,140 19,28 35,59 36,68 0,9 7,-11 14,-45 7,-33 10,-74 7,-91 z m 653,-44 c -5,-15 -105,-63 -105,-50 0,4 13,27 29,52 16,24 35,66 42,94 l 12,49 14,-64 c 7,-36 11,-72 8,-81 z m 64,-239 c 25,-22 56,-48 68,-59 23,-20 40,-67 29,-78 -8,-9 -108,42 -145,73 -27,22 -28,27 -19,64 6,22 13,40 16,40 2,0 26,-18 51,-40 z"
       id="path204" />
    <path
       d="m 915,1591 c -12,-5 -26,-15 -32,-22 -9,-12 1,-14 60,-14 42,0 98,-8 135,-19 61,-19 63,-19 77,0 18,24 19,40 1,25 -10,-9 -16,-8 -26,4 -6,8 -26,17 -44,19 -73,11 -152,14 -171,7 z m 198,-29 c 30,-18 37,-38 10,-27 -46,17 -132,35 -173,35 -30,0 -40,3 -31,9 21,14 162,1 194,-17 z"
       id="path206" />
    <path
       d="m 955,1525 c -30,-14 -30,-14 -2,-9 23,5 27,3 27,-16 0,-17 5,-21 27,-18 14,2 28,9 31,16 2,8 -2,10 -14,5 -12,-4 -15,-2 -12,8 3,8 15,13 29,12 22,-2 22,-2 4,6 -29,14 -56,12 -90,-4 z"
       id="path208" />
    <path
       d="m 1309,1493 c -11,-15 -11,-16 1,-5 20,17 30,15 30,-8 0,-15 7,-20 25,-20 15,0 25,6 25,15 0,9 -6,12 -17,8 -11,-4 -14,-3 -9,6 5,8 18,10 35,7 19,-5 22,-4 11,4 -25,16 -86,12 -101,-7 z"
       id="path210" />
    <path
       d="m 1212,1417 c -1,-45 2,-101 9,-123 9,-35 8,-46 -6,-68 -22,-33 -31,-33 -65,4 -28,30 -60,40 -60,19 0,-8 -4,-8 -14,1 -11,8 -12,18 -6,36 13,34 -1,30 -41,-13 -18,-20 -25,-31 -14,-23 11,8 23,20 27,25 5,7 8,6 8,-1 0,-5 6,-19 14,-29 12,-17 16,-18 31,-5 15,13 20,11 46,-18 16,-18 37,-32 48,-32 29,0 54,46 46,84 -4,17 -8,72 -9,123 -1,115 -10,128 -14,20 z"
       id="path212" />
    <path
       d="m 993,1463 c 9,-2 25,-2 35,0 9,3 1,5 -18,5 -19,0 -27,-2 -17,-5 z"
       id="path214" />
    <path
       d="m 925,1450 c 13,-21 75,-41 105,-35 15,3 36,15 45,25 17,18 16,18 -21,0 -40,-21 -71,-19 -113,7 -14,9 -21,10 -16,3 z"
       id="path216" />
    <path
       d="m 1330,1440 c 18,-12 47,-13 53,-2 3,4 -11,8 -31,9 -26,1 -32,-1 -22,-7 z"
       id="path218" />
    <path
       d="m 1281,1420 c 20,-31 78,-48 111,-33 19,9 17,10 -17,6 -34,-4 -47,-1 -75,23 -34,28 -35,28 -19,4 z"
       id="path220" />
    <path
       d="m 1259,1277 c 5,-14 5,-30 0,-40 -7,-11 -6,-17 0,-17 16,0 23,38 11,60 -15,27 -22,25 -11,-3 z"
       id="path222" />
    <path
       d="m 1082,1155 c 2,-2 40,-7 84,-9 43,-3 73,-2 66,3 -14,8 -159,14 -150,6 z"
       id="path224" />
    <path
       d="m 995,1139 c -4,-6 -5,-12 -2,-15 2,-3 7,2 10,11 7,17 1,20 -8,4 z"
       id="path226" />
    <path
       d="m 1302,1120 c 0,-14 2,-19 5,-12 2,6 2,18 0,25 -3,6 -5,1 -5,-13 z"
       id="path228" />
    <path
       d="m 1090,1120 c 73,-11 152,-11 166,-2 7,4 -41,7 -105,8 -91,1 -104,-1 -61,-6 z"
       id="path230" />
    <path
       d="m 916,1085 c -4,-14 -2,-33 3,-43 8,-13 10,-8 11,26 0,48 -5,54 -14,17 z"
       id="path232" />
    <path
       d="m 1095,1090 c 36,-24 94,-26 121,-4 18,15 18,15 -3,5 -30,-15 -73,-13 -103,4 -38,22 -49,18 -15,-5 z"
       id="path234" />
  </g>
  <path
     style="fill:none;stroke:#000000;stroke-width:0.75px;stroke-linecap:butt;stroke-linejoin:miter;stroke-opacity:1"
     d="m 230.48115,207.58829 c 8.32024,-12.5543 8.79975,-11.80827 8.79975,-11.80827 0,0 4.11125,-3.50001 14.09741,-8.00408 9.98616,-4.50407 18.0396,-6.99247 23.68015,-10.18421 5.64056,-3.19174 12.44199,-9.30975 12.44199,-9.30975 0,0 13.77295,-18.86992 13.85546,-19.43259 0.0825,-0.56267 -9.89703,12.62736 -9.89703,12.62736 0,0 -9.55315,7.13371 -15.24283,5.34759 -5.68968,-1.78612 -16.66337,-7.32582 -16.66337,-7.32582 l -3.47301,-2.71322 -4.65118,-4.50911 -2.58798,-3.82892 -0.85294,-1.75186 -1.0549,-2.36865 -0.27193,-1.29594 -0.37629,-1.94355 -0.41381,-1.65443 -0.0648,-3.01731 -0.0551,-2.45562 v -2.31979 l 0.25263,-2.7946 0.67781,-3.45723 2.01354,4.60005 2.37063,2.63995 2.86376,1.6986 2.5082,-0.30774 0.492,-1.1163 -1.44575,-2.75831 -1.20206,-3.10669 -0.80261,-3.84641 -0.042,-2.63785 0.52379,-2.58342 1.26302,-2.06975 1.7951,-1.72748 2.17316,-1.68363 3.20075,-1.92172 3.67983,-1.16807 c 0,0 3.33574,-0.9404 1.81587,-6.56623 -1.51987,-5.625828 -1.44478,-9.808578 -1.44478,-9.808578 0,0 0.18657,-6.989213 2.93596,-10.45155 2.7494,-3.462341 2.09296,-5.52965 2.09296,-5.52965 l -0.30874,-3.253232 0.0905,-1.284805 0.23248,-0.959071 0.34317,-1.406192 0.70502,-1.559409 1.43224,-1.773862 2.71873,-1.802252 2.44828,-1.4213 2.24045,-1.547217 2.87328,-2.308366 1.35302,-2.61114 0.81321,-2.591016 0.0626,-2.848352 -0.17261,-3.006598 c 0,0 0.001,-7.263192 0.57456,-9.076745 0.57313,-1.813553 4.55264,-8.28202 4.55264,-8.28202 0,0 6.0522,-7.364307 8.60436,-5.830088 2.55215,1.534218 0.73601,8.267182 0.73601,8.267182 l 0.0116,-2.092501 -0.0483,-3.947682 0.46004,-2.254068 0.38501,-1.012364 c 0,0 6.34688,-6.626157 9.28909,-8.120779 2.9422,-1.494621 9.52387,-1.140515 9.52387,-1.140515 0,0 0.56039,2.767297 -1.42614,5.067615 -1.98652,2.300318 2.62119,-5.316333 2.62119,-5.316333 0,0 0.9637,-1.783696 2.35969,-3.122206 1.396,-1.33851 8.09055,-6.2635962 13.58659,-4.1004647 5.49605,2.1631315 7.60368,3.6382287 7.60368,3.6382287 0,0 2.2904,1.257216 6.87069,1.179905 4.58029,-0.07731 7.29391,5.72444 7.29391,5.72444 l 0.53309,2.347545 -1.44413,4.710935 -0.25629,0.592182 v 0.688872 l 0.12888,0.636516 0.54546,0.682154 0.5075,1.010026 c 0,0 6.07769,10.230185 4.385,14.736645 -1.69268,4.506459 -3.52748,6.121528 -3.52748,6.121528 0,0 8.43193,2.759114 11.9523,9.628687 3.52037,6.869573 0.40987,6.692088 0.40987,6.692088 l 0.56741,2.713934 -0.84326,2.069025 -0.33686,0.09267 -0.5872,0.04102 h -0.85382 l -2.0714,-0.219897 -3.47956,-0.497784 -4.24486,-0.174494 -3.28845,0.05245 -3.55639,0.687816 -2.06128,0.924066 -0.51897,0.476055 -1.04296,-0.456456 -1.48434,-1.780019 1.32941,5.934744 c 0,0 0.41598,1.490358 1.84217,0.830671 1.42619,-0.659687 4.84904,-2.531312 4.84904,-2.531312 l 2.48692,-0.83284 2.69576,-0.573352 c 0,0 5.22199,-0.73906 7.97124,1.408176 2.74925,2.147236 3.47173,2.924334 3.47173,2.924334 l -1.41541,18.370432 -1.5662,9.053978 c 0,0 -1.84836,8.97669 -4.93335,15.17758 -3.08499,6.2009 -5.98223,10.36755 -7.91371,11.74356 -1.93148,1.37603 -4.35798,4.71227 -8.58321,5.46285 -4.22523,0.75057 -3.89295,0.71153 -3.89295,0.71153 l -3.92365,0.22431 -3.78999,-0.10595 -1.08633,-0.11373 -1.60728,-0.3114 -1.74884,-0.67073 -1.80232,-0.94309 -5.09634,-3.30123 -5.94131,-4.33236 -4.97197,-4.10408 -3.93006,-3.71426 c 0,0 -2.64518,-2.03014 -3.34376,-6.35941 -0.69856,-4.32926 -2.31263,-17.3732 -2.31263,-17.3732 l -0.68365,-2.906453 -1.01472,-2.572868 -1.20573,-2.97156 -0.25873,-0.693067 1.5326,-4.08792 1.87313,-4.009389 3.24099,-6.953111 1.98537,-4.362952 4.58063,2.380704 c 0,0 1.04818,-2.089271 3.40942,-2.838185 2.36125,-0.748914 8.83702,-0.285939 8.83702,-0.285939 l 9.18331,1.163145 2.03565,0.517881 1.56651,1.156578 c 0,0 0.46671,1.883124 2.40437,0.549792 1.93765,-1.333331 1.42597,0.146515 1.42597,0.146515 l -2.13831,3.321564 -1.41573,0.49219 -6.54697,-1.795637 -4.76437,-1.05429 -6.19305,-0.575674 -3.43616,0.04675 0.89918,3.987789 3.33094,-1.529527 2.31299,-0.739799 2.87792,-0.05326 1.68199,0.470133 2.25449,1.012577 -2.65105,-0.0044 -1.16532,0.263165 -0.61508,0.503488 -0.1843,0.407023 -0.14431,0.611263 0.18108,0.429938 1.16323,-0.241201 0.93943,-0.273627 0.51207,0.140888 -0.0515,0.632739 -0.4275,0.490514 -0.76856,0.501612 -1.53191,0.509182 -1.54931,0.192548 -1.0359,-0.27414 -0.4374,-0.556559 -0.13473,-1.300574 -0.0953,-1.22367 c 0,0 -0.0548,-0.516823 -2.31366,-0.137839 -2.25887,0.378984 3.38779,5.03909 3.38779,5.03909 l 0.76976,-0.24843 1.82083,0.0067 1.57281,0.139305 0.11983,0.17034 -0.37673,0.192 -1.78857,0.16332 -1.71143,-0.16332 v 0 l -6.86498,0.80103 2.89351,1.50582 c 0,0 4.23726,2.930483 9.42501,0.328845 5.18775,-2.601637 3.59448,-1.281375 3.59448,-1.281375 l -2.02869,2.045018 c 0,0 -2.64309,1.679085 -5.58234,1.436302 -2.93925,-0.242775 -5.62189,-1.48791 -5.62189,-1.48791 l -2.6151,-2.047725 c 0,0 15.90292,12.739373 8.49104,20.095833 -7.41187,7.35646 5.0513,-5.487107 5.0513,-5.487107 l 1.07817,-0.57774 0.41608,0.35229 -0.41027,1.780665 -0.44209,1.132642 -0.0488,0.702053 0.0158,0.748107 0.31768,0.71619 0.93139,0.80221 0.69942,0.41635 0.32181,-0.005 0.10446,-0.66579 0.13112,-0.64211 0.32691,-0.32015 0.56773,-0.0975 0.84662,0.15219 0.93811,0.41122 0.72121,0.36107 0.70151,0.60075 c 0,0 3.35546,3.19818 4.00408,3.67318 0.64862,0.475 1.43441,0.72328 1.43441,0.72328 l 0.52449,-0.0684 0.61902,-0.35332 c 0,0 2.88873,-3.44005 2.81311,-4.81699 -0.0756,-1.37694 -0.30793,-4.02519 -0.98228,-5.470665 -0.67436,-1.445482 -0.49508,-10.510215 -0.49508,-10.510215 l 0.49014,-7.415884 0.23106,-0.311391"
     id="path474" />
</svg>
