<?xml version="1.0" standalone="no"?>
<!DOCTYPE svg PUBLIC "-//W3C//DTD SVG 20010904//EN"
 "http://www.w3.org/TR/2001/REC-SVG-20010904/DTD/svg10.dtd">
<svg version="1.0" xmlns="http://www.w3.org/2000/svg"
 width="407.000000pt" height="551.000000pt" viewBox="0 0 407.000000 551.000000"
 preserveAspectRatio="xMidYMid meet">

<g transform="translate(0.000000,551.000000) scale(0.100000,-0.100000)"
fill="#000000" stroke="none">
<path d="M2107 5485 c-21 -8 -62 -18 -90 -21 -49 -7 -85 -23 -115 -51 -7 -7
-17 -13 -22 -13 -5 0 -32 -21 -62 -46 -61 -52 -93 -71 -136 -79 -39 -7 -150
-59 -186 -88 -22 -18 -27 -28 -22 -45 9 -27 26 -29 26 -3 0 19 54 81 70 81 5
0 12 -5 15 -11 5 -7 14 -5 29 4 12 8 44 18 71 21 27 4 52 9 57 12 4 3 8 0 8
-5 0 -6 5 -11 11 -11 5 0 7 5 4 10 -4 7 3 8 21 4 18 -5 25 -3 20 4 -4 6 1 8
13 5 12 -3 29 4 42 16 26 24 29 25 49 10 13 -9 12 -10 -2 -5 -10 3 -18 1 -18
-5 0 -13 -40 -56 -40 -43 -1 5 -7 -2 -14 -15 -14 -24 -33 -30 -106 -31 l-35
-1 35 -13 c23 -9 43 -10 59 -4 14 5 30 7 38 4 7 -3 13 0 13 7 0 14 35 47 49
47 5 0 16 11 25 25 16 25 46 34 46 15 0 -5 -4 -10 -9 -10 -5 0 -13 -9 -16 -21
-4 -11 -12 -18 -18 -16 -13 4 -57 -44 -57 -62 0 -7 -7 -23 -16 -37 -19 -29
-10 -46 10 -19 16 22 41 11 30 -14 -10 -24 -16 -98 -7 -86 9 11 59 13 69 2 9
-8 -27 -37 -38 -31 -3 2 -9 -5 -13 -16 -3 -11 -10 -20 -15 -20 -4 0 -39 -18
-78 -40 -38 -22 -79 -40 -91 -40 -11 0 -21 -4 -21 -10 0 -5 -7 -7 -15 -4 -8 4
-15 1 -15 -5 0 -6 4 -11 8 -11 5 0 14 -11 20 -25 10 -22 9 -25 -7 -25 -11 0
-21 6 -23 12 -3 8 -19 12 -42 10 -20 -2 -44 2 -51 8 -8 7 -24 10 -35 7 -11 -3
-22 -2 -25 3 -2 4 -32 8 -65 8 -33 0 -69 4 -80 7 -14 4 -24 -2 -36 -22 -10
-15 -24 -34 -32 -40 -9 -7 -15 -27 -15 -45 0 -18 -2 -27 -5 -20 -5 15 -22 6
-22 -13 0 -8 16 -16 40 -20 41 -7 54 -28 24 -39 -24 -9 -41 -7 -24 4 8 5 12
12 8 15 -11 11 -68 17 -68 7 0 -8 -27 -21 -53 -26 -4 0 -12 -7 -16 -15 -11
-16 -16 -1 -26 73 -6 41 -4 48 8 43 11 -4 19 4 26 25 6 17 9 33 7 37 -5 9 21
31 28 24 3 -4 6 5 6 20 0 14 6 28 13 30 8 4 7 6 -3 6 -21 1 -71 -64 -64 -83 3
-9 2 -16 -4 -16 -21 0 -22 33 -2 55 11 12 20 26 20 31 0 6 14 23 30 39 17 16
30 35 30 42 0 7 4 13 9 13 5 0 12 7 15 15 16 43 -67 -45 -118 -125 -27 -42
-29 -51 -29 -145 1 -69 6 -114 18 -145 25 -66 29 -99 15 -124 -13 -25 -69 -56
-99 -56 -10 0 -29 -9 -42 -20 -21 -17 -22 -21 -9 -31 12 -9 12 -10 -4 -5 -15
5 -32 -6 -68 -41 -26 -26 -48 -51 -48 -55 0 -5 -12 -32 -26 -61 -14 -28 -30
-80 -35 -115 -5 -36 -19 -78 -34 -100 -37 -56 -42 -146 -16 -249 23 -90 27
-160 10 -195 -6 -13 -33 -41 -61 -63 -27 -22 -60 -51 -73 -64 -27 -27 -105
-178 -105 -202 0 -18 -48 -73 -72 -82 -24 -8 -88 -147 -88 -189 1 -44 42 -183
62 -205 8 -10 29 -47 47 -83 40 -84 204 -250 245 -250 15 0 53 -11 86 -25 33
-14 70 -25 83 -25 32 0 118 -30 140 -48 9 -8 17 -29 17 -46 -1 -59 -40 -103
-171 -191 -68 -45 -169 -120 -224 -167 -55 -46 -116 -95 -135 -108 -40 -28
-86 -74 -109 -110 -8 -14 -27 -34 -41 -45 -92 -73 -218 -229 -277 -344 -23
-46 -49 -91 -57 -100 -7 -9 -17 -32 -21 -51 -5 -19 -10 -275 -12 -567 l-3
-533 2035 0 2035 0 0 775 c0 883 7 808 -92 971 -47 78 -60 90 -200 202 -81 65
-282 182 -312 182 -8 0 -25 9 -40 21 -53 42 -18 129 53 129 20 0 46 6 56 14
33 23 64 97 86 207 14 74 30 120 53 159 66 111 83 194 50 255 -9 17 -48 93
-87 170 -66 129 -78 147 -163 230 -80 80 -91 95 -94 130 -7 78 -1 110 35 187
35 74 37 83 33 161 -4 89 -22 138 -94 250 -59 92 -61 201 -3 267 61 70 72 104
65 199 -8 89 -14 106 -62 156 -16 17 -55 65 -87 108 -72 95 -103 127 -125 127
-41 1 -107 45 -214 143 -64 58 -125 108 -137 112 -11 3 -21 10 -21 15 0 9
-113 45 -172 55 -60 9 -88 40 -97 107 -9 71 -25 89 -114 134 -62 31 -75 34
-155 33 -48 0 -104 -7 -125 -14z m3 -81 c0 -8 -9 -14 -19 -14 -11 0 -23 -4
-26 -10 -3 -5 -20 -10 -37 -10 -23 0 -29 4 -24 16 3 9 6 20 6 26 0 6 10 8 23
5 12 -3 31 -2 42 3 24 9 35 4 35 -16z m-153 10 c-3 -3 -12 -4 -19 -1 -8 3 -5
6 6 6 11 1 17 -2 13 -5z m33 -29 c0 -8 -4 -15 -10 -15 -5 0 -10 7 -10 15 0 8
5 15 10 15 6 0 10 -7 10 -15z m-83 -27 c-3 -8 -6 -5 -6 6 -1 11 2 17 5 13 3
-3 4 -12 1 -19z m231 3 c3 -8 -1 -12 -9 -9 -7 2 -15 10 -17 17 -3 8 1 12 9 9
7 -2 15 -10 17 -17z m-122 -93 c4 -6 3 -8 -4 -4 -6 3 -13 -2 -15 -11 -4 -14
-5 -13 -6 5 -1 23 13 30 25 10z m40 -96 c-9 -15 -53 -20 -53 -7 0 7 8 10 18 8
9 -3 20 0 24 7 4 6 9 9 12 6 3 -2 2 -9 -1 -14z m89 -31 c-15 -14 -65 -25 -65
-14 0 17 12 23 44 23 18 0 26 -4 21 -9z m545 -11 c0 -5 -4 -10 -9 -10 -6 0
-13 5 -16 10 -3 6 1 10 9 10 9 0 16 -4 16 -10z m-43 -62 c-1 -6 8 -14 20 -17
25 -7 17 -34 -8 -29 -8 2 -13 -3 -11 -11 3 -12 0 -12 -12 -2 -8 7 -20 10 -25
7 -5 -4 -12 -2 -16 4 -4 6 -10 8 -15 5 -4 -3 -11 7 -14 21 -4 15 -6 27 -4 28
40 25 91 21 85 -6z m-527 1 c0 -5 -7 -9 -15 -9 -15 0 -20 12 -9 23 8 8 24 -1
24 -14z m625 -19 c-4 -11 -2 -20 4 -20 6 0 11 5 11 12 0 6 2 9 5 6 3 -3 3 -12
0 -20 -5 -13 -11 -13 -30 -4 -27 12 -45 42 -20 33 8 -4 17 -2 20 3 11 17 17
11 10 -10z m-585 1 c0 -17 -18 -21 -24 -6 -3 9 0 15 9 15 8 0 15 -4 15 -9z
m404 -38 c4 -9 4 -18 1 -21 -3 -3 -5 0 -5 6 0 7 -7 12 -15 12 -8 0 -15 7 -15
15 0 18 26 9 34 -12z m161 -23 c0 -8 -8 -16 -17 -18 -11 -2 -18 3 -18 12 0 8
-8 17 -17 20 -10 2 -2 4 17 3 24 -1 35 -7 35 -17z m35 -50 c0 -5 -2 -10 -4
-10 -3 0 -8 5 -11 10 -3 6 -1 10 4 10 6 0 11 -4 11 -10z m-351 -21 c-7 -14
-14 -18 -21 -11 -13 13 -2 32 18 32 12 0 13 -4 3 -21z m-404 -19 c-3 -5 -14
-10 -23 -9 -14 0 -13 2 3 9 27 11 27 11 20 0z m459 -19 c8 -13 -45 -34 -57
-22 -7 7 -3 14 14 20 31 13 37 13 43 2z m335 -63 c-1 -22 -1 -21 -11 5 -7 21
-13 25 -23 17 -9 -8 -14 -4 -17 14 -3 14 0 27 6 29 16 5 46 -38 45 -65z m-649
50 c0 -4 6 -5 14 -2 8 3 14 -1 13 -8 -1 -33 4 -46 22 -51 14 -3 17 -11 13 -32
-4 -26 -3 -27 24 -21 35 7 49 -1 57 -35 5 -20 2 -29 -10 -33 -9 -4 -13 -9 -10
-12 3 -3 14 0 26 7 23 15 36 7 28 -16 -7 -17 -87 -22 -87 -5 0 12 -20 13 -36
2 -6 -4 -15 -18 -19 -30 -6 -21 -4 -23 13 -18 15 5 22 1 27 -14 5 -16 15 -20
52 -20 43 0 45 -1 39 -24 -4 -16 -1 -26 9 -30 8 -3 15 -14 15 -24 0 -29 24
-46 40 -27 7 8 16 12 21 10 4 -3 13 4 19 15 12 22 40 26 58 8 8 -8 10 -2 7 28
-3 21 -3 33 1 26 4 -8 11 -6 24 10 17 22 19 22 37 5 11 -9 23 -14 27 -10 4 4
11 1 16 -7 8 -12 10 -11 10 5 1 19 1 19 11 2 6 -9 7 -26 4 -37 -5 -14 -2 -20
9 -20 10 0 16 -9 16 -21 0 -15 5 -19 19 -14 31 10 43 -19 43 -102 -1 -131 11
-171 33 -120 6 12 15 22 20 22 6 0 11 -10 13 -22 4 -27 19 -30 25 -5 3 11 5 7
6 -10 1 -25 -21 -58 -39 -58 -19 0 -40 13 -34 21 3 5 -3 6 -12 2 -13 -5 -16
-2 -12 9 4 8 -1 29 -9 47 -12 25 -18 29 -29 20 -20 -16 -17 -55 4 -64 14 -6
12 -9 -13 -16 -17 -5 -33 -5 -39 1 -5 5 -16 5 -25 1 -25 -13 -91 -7 -102 9 -8
11 -12 12 -16 3 -2 -7 -11 -13 -18 -13 -7 0 -15 -7 -19 -15 -8 -22 -26 -18
-26 5 0 13 -7 20 -19 20 -16 0 -21 -10 -26 -53 -6 -44 -3 -62 16 -102 19 -41
23 -62 20 -125 -8 -173 -4 -243 18 -299 l22 -54 -26 -27 c-29 -30 -78 -43 -95
-26 -8 8 -10 7 -8 -4 2 -8 0 -5 -6 7 -5 12 -26 29 -47 39 -39 17 -139 27 -139
14 0 -4 9 -19 21 -34 18 -23 47 -43 121 -81 11 -6 17 -17 15 -27 -7 -26 17
-52 49 -54 16 -1 31 -3 33 -3 3 -1 -4 -7 -14 -15 -13 -10 -28 -11 -49 -5 -43
13 -101 11 -169 -6 -50 -12 -59 -12 -64 1 -3 8 -18 14 -33 14 -22 0 -31 -7
-44 -37 -9 -21 -22 -46 -27 -57 -7 -11 -7 -22 -1 -28 10 -10 42 -1 42 12 0 15
31 40 50 40 24 0 146 -55 155 -69 3 -6 -1 -21 -9 -33 -20 -28 -21 -52 -1 -45
8 4 27 0 42 -8 36 -19 49 -19 57 0 8 23 40 18 66 -10 15 -16 34 -25 53 -25 22
0 28 -4 23 -15 -4 -11 1 -15 19 -15 21 0 24 -3 17 -17 -5 -10 -16 -34 -24 -53
-37 -84 -48 -104 -48 -92 0 6 -5 12 -11 12 -5 0 -7 -4 -4 -10 4 -6 -7 -10 -27
-10 -25 0 -29 3 -18 10 12 7 12 10 1 10 -7 0 -11 6 -8 14 4 10 -4 17 -24 21
-24 5 -35 2 -50 -14 -17 -18 -32 -21 -93 -21 l-74 0 -8 38 c-4 22 -9 30 -11
20 -5 -22 -33 -24 -33 -3 0 9 -8 19 -17 22 -10 4 -22 11 -28 15 -5 5 -19 15
-29 22 -22 15 -14 36 15 36 10 0 19 3 19 8 0 4 -20 7 -45 6 -40 0 -46 2 -51
23 -6 23 -28 31 -39 14 -3 -5 0 -21 6 -35 7 -14 9 -29 6 -33 -9 -8 -47 26 -47
42 0 7 -13 18 -30 25 -16 7 -30 17 -30 22 0 5 -5 6 -11 2 -8 -4 -9 4 -4 27 4
22 3 29 -3 20 -7 -9 -14 9 -26 63 -11 46 -24 79 -34 85 -14 8 -12 13 16 36 38
32 40 45 7 45 -23 0 -25 4 -25 40 0 23 7 54 16 71 8 16 13 40 10 52 -3 12 -3
16 0 10 15 -33 38 3 28 43 -3 13 -13 24 -21 24 -8 0 -12 4 -9 9 9 14 -4 41
-20 41 -8 0 -14 7 -14 16 0 8 -3 13 -7 11 -5 -3 -9 15 -10 40 -1 25 -9 53 -18
63 -8 9 -15 30 -13 46 1 16 -4 39 -11 52 -7 13 -11 29 -8 35 2 7 1 46 -3 87
-3 41 -3 77 1 80 13 9 28 80 17 80 -6 0 -7 8 -3 18 4 9 9 60 11 112 5 126 13
170 30 170 10 0 12 8 8 30 -9 43 2 75 31 88 14 6 25 18 25 26 0 21 16 28 73
31 28 2 53 8 55 14 2 6 11 11 21 11 9 0 22 5 28 11 7 7 19 8 30 4 24 -10 53
-13 53 -5 0 3 16 4 35 2 21 -3 35 0 35 7 0 6 -8 10 -17 8 -33 -4 -24 18 9 24
22 4 26 7 11 8 -13 0 -22 5 -20 10 1 4 -8 17 -21 27 l-24 20 24 1 c14 2 40 9
59 17 36 15 69 17 69 4z m-184 -18 c0 -12 -4 -16 -9 -11 -5 5 -6 14 -3 20 10
15 12 14 12 -9z m897 -7 c-7 -2 -21 -2 -30 0 -10 3 -4 5 12 5 17 0 24 -2 18
-5z m24 -21 c15 -10 63 -80 63 -93 0 -6 4 -7 10 -4 6 4 7 -1 3 -11 -5 -13 -3
-15 7 -9 9 5 11 4 6 -3 -11 -18 -36 -15 -30 3 4 8 2 15 -4 15 -12 0 -55 80
-44 81 4 0 -6 7 -23 14 -16 8 -23 14 -15 14 8 1 20 -3 27 -7z m-1474 -19 c10
-10 -13 -33 -34 -33 -21 0 -33 15 -24 30 7 11 48 14 58 3z m1601 -66 c-5 -16
-3 -19 11 -13 15 5 16 4 5 -9 -17 -21 -18 -20 -30 26 -8 30 -15 39 -26 35 -9
-3 -12 -1 -9 4 3 6 1 10 -5 10 -6 0 -8 4 -5 10 3 5 19 -2 36 -17 21 -19 27
-32 23 -46z m-1280 48 c3 -8 1 -15 -3 -15 -5 0 -11 7 -15 15 -3 8 -1 15 3 15
5 0 11 -7 15 -15z m-210 -8 c-3 -8 7 -18 23 -24 l28 -11 -30 -2 c-16 -1 -37
-2 -47 -1 -9 1 -19 -3 -23 -9 -3 -5 -1 -10 5 -10 7 0 5 -7 -4 -16 -9 -8 -20
-12 -26 -9 -5 3 -10 -3 -10 -14 0 -12 -4 -21 -9 -21 -5 0 -11 -9 -14 -20 -3
-11 -12 -20 -21 -20 -18 0 -21 15 -6 25 6 4 9 14 8 23 -2 9 11 25 29 36 18 12
31 27 30 35 -1 8 9 18 23 21 14 4 24 12 23 18 -2 7 4 12 12 12 8 0 12 -6 9
-13z m456 -8 c13 -9 12 -10 -2 -5 -10 3 -18 1 -18 -5 0 -6 -5 -7 -10 -4 -11 7
-4 25 8 25 4 0 14 -5 22 -11z m-590 -26 c3 -3 -4 -11 -14 -19 -15 -11 -22 -11
-34 -1 -12 9 -16 9 -19 0 -7 -20 -23 -15 -23 6 0 26 66 36 90 14z m385 7 c3
-5 1 -10 -4 -10 -6 0 -11 5 -11 10 0 6 2 10 4 10 3 0 8 -4 11 -10z m930 -10
c3 -5 1 -10 -4 -10 -6 0 -11 5 -11 10 0 6 2 10 4 10 3 0 8 -4 11 -10z m-1345
-122 c0 -19 -2 -20 -10 -8 -13 19 -13 30 0 30 6 0 10 -10 10 -22z m1915 -145
c-4 -35 -17 -73 -26 -73 -12 0 -11 20 2 59 12 33 27 42 24 14z m-2101 -108
c-3 -42 2 -43 37 -9 34 33 53 25 33 -14 -12 -24 -12 -27 2 -30 8 -2 21 1 27 7
10 8 12 2 9 -24 -3 -27 0 -35 11 -35 23 0 29 -16 15 -39 -16 -26 -98 -55 -112
-41 -7 7 -6 10 2 10 7 0 12 7 12 16 0 11 -6 15 -17 11 -32 -9 -38 -9 -60 -8
-16 1 -23 7 -23 22 0 17 -3 19 -14 10 -11 -9 -15 -7 -19 9 -3 11 0 23 6 28 17
10 39 56 35 73 -2 9 4 13 15 11 11 -2 17 4 17 16 0 10 3 22 6 25 13 13 21 -3
18 -38z m-86 -27 c-2 -16 -10 -22 -31 -23 -37 -1 -58 12 -32 20 11 4 27 10 35
15 24 14 32 11 28 -12z m1634 -40 c-7 -7 -12 -8 -12 -2 0 6 3 14 7 17 3 4 9 5
12 2 2 -3 -1 -11 -7 -17z m-1662 -37 c0 -5 3 -16 6 -25 3 -9 1 -16 -5 -16 -6
0 -11 9 -11 20 0 14 -5 18 -17 14 -15 -5 -16 -4 -3 5 18 13 30 14 30 2z m1616
-28 c-10 -10 -19 5 -10 18 6 11 8 11 12 0 2 -7 1 -15 -2 -18z m-1316 -22 c0
-5 -13 -14 -30 -21 -16 -7 -30 -17 -30 -22 0 -5 -5 -6 -11 -3 -6 4 3 17 23 31
36 25 48 29 48 15z m57 -18 c-4 -3 -2 -12 4 -19 11 -14 0 -19 -63 -28 -23 -4
-40 -1 -44 6 -4 7 -3 8 4 4 6 -4 20 2 31 13 11 11 22 17 24 14 3 -3 14 0 24 6
21 12 29 14 20 4z m-347 -37 c0 -3 -4 -8 -10 -11 -5 -3 -10 -1 -10 4 0 6 5 11
10 11 6 0 10 -2 10 -4z m-50 -90 c0 -11 -19 -15 -25 -6 -3 5 1 10 9 10 9 0 16
-2 16 -4z m-40 -63 c0 -18 17 -16 24 2 3 8 13 15 22 15 10 0 25 7 35 16 17 15
18 15 16 -12 -1 -19 3 -29 13 -29 10 0 14 -8 12 -23 -4 -28 5 -28 28 1 24 30
36 16 14 -17 -27 -42 -7 -44 27 -3 31 38 49 47 49 25 0 -20 -50 -122 -63 -130
-6 -4 -8 -10 -4 -14 4 -4 14 1 21 12 8 10 28 36 45 58 17 21 31 43 31 47 0 21
30 7 36 -16 3 -14 10 -25 14 -25 5 0 17 -3 27 -6 14 -4 15 -4 4 4 -15 11 -7
32 14 32 7 0 15 6 18 13 3 8 12 5 28 -11 20 -19 22 -24 9 -32 -10 -6 -11 -10
-2 -10 14 0 16 -46 2 -55 -6 -4 -8 -10 -5 -15 8 -13 -30 -31 -49 -24 -9 3 -16
1 -16 -4 0 -18 -30 -42 -53 -42 -12 0 -33 -12 -46 -26 -16 -16 -27 -21 -31
-14 -5 7 -11 6 -20 -5 -11 -14 -14 -13 -26 2 -11 17 -13 16 -23 -10 -6 -16
-11 -33 -11 -39 0 -16 -13 -1 -16 17 -1 8 2 15 7 15 6 0 8 4 5 8 -3 5 4 23 15
40 24 41 24 51 -1 49 -13 -1 -19 -6 -15 -16 8 -21 -4 -51 -21 -51 -15 0 -19
15 -6 23 4 2 2 2 -5 1 -7 -2 -15 1 -18 6 -4 6 -18 -4 -32 -21 -22 -26 -28 -28
-35 -15 -5 9 -6 25 -3 36 8 25 -3 26 -21 3 -13 -16 -13 -15 -4 9 6 18 6 29 0
33 -6 4 -10 0 -10 -8 0 -16 -68 -53 -78 -42 -3 3 0 15 7 26 15 25 14 26 -24
31 -24 2 -31 -1 -33 -18 -2 -12 -12 -30 -23 -40 -22 -20 -22 -20 -10 24 8 26
7 34 -5 39 -12 5 -12 7 2 18 11 8 18 29 20 66 3 73 12 97 38 105 11 4 24 12
28 18 6 8 8 8 8 -1 0 -20 55 -8 59 13 3 17 4 17 17 -1 8 -10 14 -25 14 -32z
m2130 -163 c-6 -11 -13 -20 -16 -20 -2 0 0 9 6 20 6 11 13 20 16 20 2 0 0 -9
-6 -20z m-2240 -76 c0 -8 -4 -12 -10 -9 -5 3 -10 10 -10 16 0 5 5 9 10 9 6 0
10 -7 10 -16z m-30 -24 c0 -5 -2 -10 -4 -10 -3 0 -8 5 -11 10 -3 6 -1 10 4 10
6 0 11 -4 11 -10z m2312 -254 c-6 -11 -13 -31 -15 -43 -5 -20 -2 -22 21 -16
15 3 30 11 34 17 4 6 8 8 8 4 0 -4 -18 -31 -40 -60 -22 -29 -40 -56 -40 -60 0
-5 -17 -7 -37 -7 -24 1 -29 3 -15 6 12 2 22 9 22 14 0 10 -12 12 -34 3 -18 -7
-22 -54 -5 -54 5 0 7 5 4 10 -4 6 7 10 27 9 28 -1 29 -2 10 -7 -13 -4 -23 -10
-23 -14 3 -29 0 -42 -7 -32 -10 16 -30 -6 -26 -30 3 -22 -8 -12 -14 12 -2 9
-5 35 -7 57 -2 22 -4 45 -4 50 -1 6 -5 3 -11 -5 -21 -34 -20 3 1 60 16 42 33
67 52 78 15 9 27 20 27 24 0 4 9 8 21 8 11 0 28 8 37 17 16 16 17 15 20 -2 2
-9 -1 -27 -6 -39z m-2284 27 c-3 -44 3 -94 11 -89 5 4 14 -6 19 -21 9 -23 11
-24 11 -7 1 28 11 36 28 22 18 -14 63 5 63 27 0 9 9 15 25 15 21 0 26 -6 31
-40 4 -22 18 -54 31 -72 18 -24 23 -27 19 -11 -4 12 -2 24 4 28 25 16 2 -70
-24 -87 -6 -4 -1 -6 11 -6 14 2 19 7 15 17 -4 10 -1 12 7 7 9 -6 11 -22 6 -55
-9 -66 12 -178 34 -184 10 -2 28 -26 40 -53 13 -27 28 -52 33 -55 5 -3 0 -9
-11 -12 -12 -3 -21 -1 -21 4 0 5 -10 14 -23 20 -13 6 -33 33 -46 60 -13 27
-28 49 -32 49 -13 0 -10 -59 5 -99 10 -28 14 -31 19 -17 4 10 4 23 1 29 -5 9
-4 9 5 1 9 -8 9 -18 1 -40 -6 -16 -8 -25 -4 -21 7 7 53 -59 54 -77 0 -6 -13 2
-28 17 -33 32 -52 35 -52 8 0 -29 -17 -35 -23 -9 -4 12 -1 25 5 29 7 5 4 21
-11 51 -15 32 -21 66 -23 119 l-1 74 -7 -90 c-6 -69 -4 -95 7 -113 17 -28 20
-157 3 -147 -4 2 -14 -9 -24 -26 -22 -37 -41 -38 -31 -2 6 27 6 27 -14 9 -12
-11 -21 -26 -21 -35 0 -9 -5 -23 -11 -31 -9 -13 -10 -12 -5 3 4 12 0 17 -15
17 -13 0 -18 -4 -13 -12 5 -7 2 -9 -9 -5 -9 3 -18 1 -21 -6 -3 -9 -7 -9 -14 1
-7 11 -11 10 -16 -4 -6 -14 -9 -16 -15 -5 -7 11 -10 11 -17 0 -4 -7 -3 -14 4
-17 7 -2 12 -11 12 -19 0 -12 -3 -13 -14 -4 -11 10 -15 8 -20 -6 -3 -10 -3 0
0 22 3 22 1 35 -3 29 -6 -9 -12 -8 -21 2 -11 12 -10 14 5 15 12 1 10 3 -7 8
-14 4 -27 16 -29 26 -4 25 -23 38 -33 22 -5 -8 -8 -6 -8 6 0 12 -4 16 -12 11
-16 -10 -48 -13 -43 -4 3 4 18 10 35 13 50 10 34 24 -21 19 -41 -4 -51 -2 -47
9 2 7 13 14 24 15 48 2 57 4 49 12 -17 14 -67 33 -60 22 10 -16 -61 -12 -75 5
-7 8 -16 12 -21 9 -13 -8 -50 16 -43 27 3 6 17 9 30 6 17 -3 34 5 59 29 38 36
43 55 20 78 -22 21 -19 92 6 143 11 24 25 43 30 43 5 0 9 9 9 19 0 11 9 23 22
27 12 3 28 13 36 20 15 16 32 10 32 -11 0 -22 59 -30 78 -10 9 9 26 22 36 29
27 18 14 51 -17 42 -12 -4 -26 -8 -32 -10 -5 -2 -17 -6 -26 -10 -8 -4 -28 -2
-43 4 -20 7 -36 6 -61 -5 -30 -12 -35 -12 -35 0 0 8 12 20 27 27 16 7 28 20
28 29 0 8 8 23 18 33 15 15 17 15 17 2 0 -9 -4 -16 -10 -16 -15 0 -12 -19 8
-39 16 -18 18 -18 49 -1 18 9 30 20 26 24 -3 3 -12 1 -19 -5 -8 -7 -14 -7 -19
1 -8 13 22 50 37 47 10 -2 32 47 42 96 7 30 27 38 24 10z m2347 -123 c-3 -5 3
-10 14 -10 25 0 22 -17 -17 -79 -31 -50 -52 -65 -52 -36 0 11 -5 12 -25 5 -20
-8 -23 -7 -18 8 3 9 12 24 18 32 7 8 16 25 20 38 4 16 12 21 22 18 12 -5 14
-1 10 14 -4 15 0 20 15 20 10 0 16 -4 13 -10z m268 -104 c4 -10 0 -12 -14 -9
-22 6 -26 23 -5 23 8 0 16 -6 19 -14z m-2853 -26 c0 -5 -2 -10 -4 -10 -3 0 -8
5 -11 10 -3 6 -1 10 4 10 6 0 11 -4 11 -10z m617 4 c-3 -3 -12 -4 -19 -1 -8 3
-5 6 6 6 11 1 17 -2 13 -5z m-79 -35 c12 -18 11 -24 -1 -36 -8 -9 -20 -12 -26
-9 -17 11 -13 26 4 20 9 -4 15 0 15 10 0 9 -4 16 -10 16 -5 0 -10 5 -10 10 0
17 14 11 28 -11z m122 11 c0 -5 -5 -10 -11 -10 -5 0 -7 5 -4 10 3 6 8 10 11
10 2 0 4 -4 4 -10z m1856 -27 c-11 -11 -17 4 -9 23 7 18 8 18 11 1 2 -10 1
-21 -2 -24z m290 -128 c1 -8 -2 -15 -7 -15 -5 0 -9 10 -9 22 0 23 12 17 16 -7z
m-40 -102 c-10 -11 -37 -12 -30 -2 3 5 12 9 21 9 9 0 13 -3 9 -7z m-1644 -54
c21 -22 38 -45 38 -50 0 -6 5 -7 10 -4 6 3 10 -3 10 -14 0 -12 9 -26 20 -33
11 -7 20 -18 20 -25 0 -7 7 -13 15 -13 9 0 18 -7 21 -15 4 -8 12 -15 20 -15 8
0 14 -10 15 -22 0 -22 1 -22 8 -3 8 19 8 19 15 -2 4 -12 12 -20 19 -17 7 2 18
-8 25 -23 15 -34 16 -51 0 -35 -7 7 -15 12 -20 12 -10 0 18 -78 35 -95 20 -19
9 -76 -15 -83 -11 -2 -17 -10 -14 -18 3 -7 1 -16 -4 -19 -6 -4 -10 -1 -10 6 0
8 -4 8 -15 -1 -12 -10 -16 -9 -21 4 -3 9 -10 14 -14 11 -5 -3 -16 13 -26 35
-10 22 -21 40 -26 40 -4 0 -8 13 -8 29 0 16 -6 31 -15 34 -8 4 -23 23 -35 44
-11 21 -24 45 -29 53 -5 8 -17 33 -27 54 -11 22 -27 53 -36 70 -24 44 -24 136
1 136 2 0 22 -18 43 -41z m1352 -20 c-3 -5 0 -9 6 -9 6 0 8 -5 4 -12 -5 -8 0
-9 15 -5 16 4 30 -2 49 -22 23 -23 34 -27 75 -26 54 2 65 -7 74 -59 5 -31 3
-35 -11 -30 -9 3 -17 16 -17 28 -1 20 -2 20 -7 1 l-5 -20 -8 20 c-6 16 -8 17
-8 3 -1 -9 -10 -20 -21 -23 -11 -3 -20 -15 -20 -25 0 -15 -7 -17 -46 -15 -25
2 -53 10 -63 19 -9 8 -34 22 -54 31 -21 9 -40 23 -43 33 -3 9 -10 25 -15 35
-6 12 -5 17 3 18 11 0 11 2 0 6 -6 2 -10 9 -7 13 6 10 65 -20 65 -32 0 -5 4
-8 10 -8 5 0 9 18 7 40 -1 22 -6 40 -10 40 -5 0 -6 4 -2 10 3 5 12 7 20 4 8
-4 12 -10 9 -15z m-917 5 c-3 -3 -12 -4 -19 -1 -8 3 -5 6 6 6 11 1 17 -2 13
-5z m1224 -4 c24 13 24 13 33 -17 4 -12 2 -24 -4 -28 -5 -3 -10 -1 -10 5 0 6
-4 8 -10 5 -5 -3 -10 -15 -10 -26 0 -10 -7 -19 -15 -19 -9 0 -18 -7 -22 -16
-5 -14 -7 -14 -17 2 -6 11 -11 33 -12 49 l-1 30 13 -30 c11 -25 13 -27 14 -8
0 31 -11 54 -23 46 -6 -3 -7 -1 -3 5 5 9 13 9 27 2 13 -8 25 -7 40 0z m-1699
-150 c7 -14 21 -34 31 -44 9 -11 17 -26 17 -33 0 -7 4 -13 9 -13 5 0 12 -15
15 -34 4 -19 13 -36 20 -39 20 -8 46 -93 46 -151 0 -61 -18 -101 -45 -101 -11
0 -24 -9 -29 -20 -9 -18 -10 -16 -14 13 -2 20 3 38 12 48 9 9 13 21 9 27 -4 7
-9 4 -13 -8 -6 -17 -7 -16 -13 5 -4 17 0 31 13 45 11 12 20 32 21 46 1 23 1
23 14 -6 12 -25 14 -26 15 -9 0 23 -24 49 -37 41 -4 -3 -16 10 -25 29 -10 19
-13 34 -8 34 6 0 10 7 10 16 0 9 -5 12 -12 8 -8 -5 -9 -2 -5 10 4 9 3 15 -2
12 -5 -3 -14 1 -21 9 -7 8 -16 13 -20 10 -5 -3 -11 -1 -15 5 -3 5 -17 10 -31
10 -22 0 -24 4 -24 52 0 87 46 109 82 38z m-1074 33 c-10 -2 -26 -2 -35 0 -10
3 -2 5 17 5 19 0 27 -2 18 -5z m2407 -56 c4 4 5 0 2 -9 -4 -11 -2 -18 6 -18 7
0 18 -9 25 -21 8 -12 19 -18 28 -15 8 3 15 0 15 -7 1 -7 2 -16 4 -22 1 -5 3
-14 3 -19 1 -5 8 -3 16 3 11 9 20 5 41 -18 16 -16 34 -27 42 -24 7 3 11 9 8
13 -9 14 16 23 28 11 16 -16 19 -45 2 -31 -16 13 -42 3 -48 -18 -4 -14 -6 -13
-12 6 -5 15 -16 22 -34 23 -23 0 -24 1 -6 9 23 10 21 11 -18 14 -21 1 -26 -2
-22 -14 4 -9 0 -8 -13 5 -11 11 -18 23 -15 28 2 4 -2 7 -10 7 -7 0 -23 9 -35
20 -12 11 -27 20 -33 20 -7 0 -9 3 -6 6 3 4 -3 18 -13 32 -23 29 -24 38 -7 56
10 12 15 9 27 -15 9 -17 20 -26 25 -22z m-2425 23 c0 -5 -2 -10 -4 -10 -3 0
-8 5 -11 10 -3 6 -1 10 4 10 6 0 11 -4 11 -10z m2753 -17 c-21 -8 -15 -23 10
-24 l22 -2 -23 -4 c-13 -3 -19 -9 -16 -15 4 -7 2 -8 -4 -4 -22 14 -12 57 12
55 6 0 5 -3 -1 -6z m-185 -70 c-10 -2 -28 -2 -40 0 -13 2 -5 4 17 4 22 1 32
-1 23 -4z m208 -12 c-4 -5 0 -12 6 -14 8 -3 6 -6 -4 -6 -11 -1 -15 -6 -12 -16
3 -8 11 -13 16 -12 6 1 13 -4 16 -12 3 -10 -1 -13 -16 -9 -13 4 -23 0 -26 -8
-8 -21 -25 -17 -37 10 -14 30 2 63 33 69 13 2 24 5 26 6 2 0 1 -3 -2 -8z
m-2486 -22 c0 -6 -4 -7 -10 -4 -5 3 -10 11 -10 16 0 6 5 7 10 4 6 -3 10 -11
10 -16z m2273 14 c-7 -2 -21 -2 -30 0 -10 3 -4 5 12 5 17 0 24 -2 18 -5z m36
-7 c9 -10 8 -15 -2 -19 -8 -3 -13 3 -14 14 -2 23 1 24 16 5z m-2509 -38 c0
-12 -1 -19 -3 -17 -1 2 -9 12 -16 22 -12 14 -11 17 3 17 10 0 16 -8 16 -22z
m24 -13 c5 -22 4 -26 -4 -15 -5 8 -10 24 -10 34 0 26 6 18 14 -19z m383 13
c-3 -8 -6 -5 -6 6 -1 11 2 17 5 13 3 -3 4 -12 1 -19z m-312 -8 c8 7 16 7 19 2
3 -6 -1 -12 -9 -16 -8 -3 -15 -15 -15 -27 0 -31 -6 -21 -13 21 -3 19 -3 29 0
22 4 -9 8 -10 18 -2z m295 6 c0 -3 -4 -8 -10 -11 -5 -3 -10 -1 -10 4 0 6 5 11
10 11 6 0 10 -2 10 -4z m258 -40 c-2 -17 -7 -22 -20 -18 -18 4 -18 6 -2 23 22
24 24 24 22 -5z m-517 -8 c0 -10 2 -10 6 0 7 17 23 15 23 -3 0 -9 -9 -15 -25
-15 -16 0 -25 6 -25 15 0 18 20 20 21 3z m1236 -25 c-3 -3 -11 -2 -17 2 -9 6
-9 10 1 16 14 8 27 -7 16 -18z m1133 -1 c0 -15 -2 -15 -10 -2 -13 20 -13 33 0
25 6 -3 10 -14 10 -23z m-1173 -4 c-3 -8 -6 -5 -6 6 -1 11 2 17 5 13 3 -3 4
-12 1 -19z m1203 2 c0 -11 5 -20 10 -20 6 0 10 -5 10 -12 0 -6 -9 -3 -20 7
-21 19 -27 45 -10 45 6 0 10 -9 10 -20z m85 0 c14 -15 16 -27 10 -57 -5 -23
-10 -31 -12 -20 -3 9 -9 14 -15 11 -7 -4 -8 -2 -4 4 4 7 4 17 0 23 -4 8 -9 7
-15 -2 -6 -10 -9 -8 -9 8 0 26 10 53 20 53 4 0 15 -9 25 -20z m-2030 -18 c-3
-3 -11 0 -18 7 -9 10 -8 11 6 5 10 -3 15 -9 12 -12z m-35 -2 c0 -5 -7 -10 -15
-10 -8 0 -15 5 -15 10 0 6 7 10 15 10 8 0 15 -4 15 -10z m375 -60 c-5 -15 -2
-20 13 -20 22 0 56 -33 45 -44 -5 -4 -1 -6 7 -4 10 2 14 -4 13 -17 -2 -11 -5
-38 -8 -60 -4 -37 -4 -38 6 -12 6 15 15 27 21 27 18 0 -2 -158 -28 -230 -16
-39 -23 -76 -20 -92 3 -16 1 -28 -4 -28 -5 0 -7 -15 -4 -32 4 -25 3 -30 -5
-18 -10 13 -12 13 -20 0 -5 -8 -7 -18 -4 -22 2 -5 1 -14 -5 -21 -5 -7 -12 -20
-15 -29 -4 -12 -2 -15 9 -11 12 4 9 -7 -10 -44 -14 -28 -22 -53 -19 -57 4 -3
2 -6 -4 -6 -6 0 -9 -11 -8 -25 2 -14 0 -25 -4 -25 -6 0 -31 -74 -32 -95 0 -5
-7 -14 -15 -18 -8 -4 -14 -14 -14 -21 0 -22 -70 -166 -81 -166 -6 0 -8 -4 -5
-9 4 -5 3 -17 0 -26 -10 -24 -24 1 -24 43 0 70 62 340 87 377 7 11 13 28 13
38 0 10 6 30 14 45 7 15 16 76 20 137 6 120 -7 118 -25 -4 -10 -70 -28 -115
-29 -71 0 14 4 40 9 58 5 17 6 32 1 32 -5 0 -11 -8 -13 -17 -3 -10 -6 -2 -7
17 -4 55 -7 75 -14 104 -3 14 -2 26 3 26 4 0 11 -22 15 -50 4 -27 12 -50 17
-50 7 0 8 6 3 18 -5 9 -9 54 -9 100 0 45 -3 82 -7 82 -5 0 -8 -5 -8 -12 0 -6
-3 -8 -6 -5 -4 4 -1 27 6 52 8 28 16 42 20 34 12 -19 37 11 32 38 -2 13 0 23
6 23 5 0 17 16 26 35 10 20 21 33 26 30 4 -3 11 6 14 20 4 14 11 25 17 25 6 0
8 -9 4 -20z m-780 -20 c3 -5 2 -10 -4 -10 -5 0 -13 5 -16 10 -3 6 -2 10 4 10
5 0 13 -4 16 -10z m1230 -47 c-29 -45 -53 -71 -165 -173 -35 -33 -69 -60 -75
-60 -5 0 -25 -14 -44 -30 -38 -34 -51 -37 -51 -14 0 10 6 14 14 11 14 -6 40
38 31 52 -2 5 7 19 20 31 14 13 25 31 25 39 0 14 1 14 10 1 8 -12 10 -12 10
-1 0 8 3 12 6 8 4 -3 13 1 21 9 9 8 21 13 29 10 7 -3 18 2 24 10 7 8 16 14 21
14 10 0 49 37 49 46 0 11 68 72 74 66 3 -3 6 1 6 8 0 7 3 10 6 7 4 -4 -1 -19
-11 -34z m1222 15 c-3 -8 -6 -5 -6 6 -1 11 2 17 5 13 3 -3 4 -12 1 -19z
m-1377 -238 c0 -5 -2 -10 -4 -10 -3 0 -8 5 -11 10 -3 6 -1 10 4 10 6 0 11 -4
11 -10z m22 -62 c-9 -9 -12 -7 -12 12 0 19 3 21 12 12 9 -9 9 -15 0 -24z m-42
13 c0 -5 -7 -11 -15 -15 -9 -3 -15 0 -15 9 0 8 7 15 15 15 8 0 15 -4 15 -9z
m-54 -56 c-15 -15 -16 -15 -12 7 3 13 5 25 5 28 1 2 6 -1 12 -7 9 -9 8 -16 -5
-28z m66 -4 c-5 -3 -14 -16 -21 -28 -6 -13 -16 -23 -21 -23 -9 0 2 23 30 68
13 19 16 20 18 6 2 -9 0 -19 -6 -23z m-89 -28 c-7 -2 -19 -2 -25 0 -7 3 -2 5
12 5 14 0 19 -2 13 -5z m278 -676 c-10 -9 -11 -8 -5 6 3 10 9 15 12 12 3 -3 0
-11 -7 -18z m-1 -72 c0 -5 -4 -4 -9 3 -6 10 -10 7 -15 -13 -4 -15 -10 -25 -13
-22 -3 4 0 20 7 37 9 23 15 28 21 18 5 -7 9 -17 9 -23z m-43 -119 c0 -8 -6
-12 -15 -9 -11 5 -11 7 0 14 7 5 13 9 14 9 0 0 1 -6 1 -14z m-17 -31 c0 -8 -4
-15 -10 -15 -5 0 -7 7 -4 15 4 8 8 15 10 15 2 0 4 -7 4 -15z m-22 -70 c-3 -3
-9 2 -12 12 -6 14 -5 15 5 6 7 -7 10 -15 7 -18z"/>
<path d="M2080 4740 c0 -5 5 -10 10 -10 6 0 10 5 10 10 0 6 -4 10 -10 10 -5 0
-10 -4 -10 -10z"/>
<path d="M1985 4710 c-3 -5 -1 -10 4 -10 6 0 11 5 11 10 0 6 -2 10 -4 10 -3 0
-8 -4 -11 -10z"/>
<path d="M2055 4680 c3 -5 10 -10 16 -10 5 0 9 5 9 10 0 6 -7 10 -16 10 -8 0
-12 -4 -9 -10z"/>
<path d="M2090 4681 c0 -12 29 -23 41 -15 18 10 9 24 -16 24 -14 0 -25 -4 -25
-9z"/>
<path d="M2138 4603 c7 -3 16 -2 19 1 4 3 -2 6 -13 5 -11 0 -14 -3 -6 -6z"/>
<path d="M2520 4565 c0 -8 4 -15 10 -15 5 0 7 7 4 15 -4 8 -8 15 -10 15 -2 0
-4 -7 -4 -15z"/>
<path d="M2661 4444 c0 -11 3 -14 6 -6 3 7 2 16 -1 19 -3 4 -6 -2 -5 -13z"/>
<path d="M2624 4252 c-9 -5 -8 -11 2 -20 12 -11 14 -9 14 8 0 22 0 23 -16 12z"/>
<path d="M2751 4244 c0 -11 3 -14 6 -6 3 7 2 16 -1 19 -3 4 -6 -2 -5 -13z"/>
<path d="M1849 4231 c-46 -7 -129 -52 -129 -71 0 -6 -7 -10 -15 -10 -26 0 -19
-59 8 -70 12 -6 29 -14 37 -19 8 -5 28 -14 43 -20 15 -6 30 -18 33 -26 11 -29
69 -82 97 -89 15 -4 25 -11 22 -16 -3 -6 6 -10 22 -11 56 -2 98 3 101 12 2 5
13 9 23 9 24 0 68 45 81 83 7 20 15 26 26 22 8 -3 19 0 23 7 5 7 16 13 26 13
12 0 18 8 19 23 1 13 13 35 28 51 14 15 26 31 26 36 0 5 7 16 15 25 14 15 14
18 0 30 -13 11 -20 9 -41 -11 -24 -22 -26 -23 -57 -7 -33 17 -61 28 -87 35
-26 7 -253 10 -301 4z m35 -211 c9 0 36 -26 36 -34 0 -10 -65 7 -72 18 -4 6
-8 20 -8 30 0 18 1 18 18 3 10 -10 22 -17 26 -17z m76 -33 c11 -5 9 -6 -4 -4
-11 1 -21 9 -23 17 -3 10 -2 11 4 4 4 -6 15 -14 23 -17z"/>
<path d="M2488 4233 c7 -3 16 -2 19 1 4 3 -2 6 -13 5 -11 0 -14 -3 -6 -6z"/>
<path d="M2110 3670 c-9 -6 -10 -10 -3 -10 6 0 15 5 18 10 8 12 4 12 -15 0z"/>
<path d="M1760 3640 c0 -5 5 -10 10 -10 6 0 10 5 10 10 0 6 -4 10 -10 10 -5 0
-10 -4 -10 -10z"/>
<path d="M2066 3631 c-4 -7 -5 -15 -2 -18 9 -9 19 4 14 18 -4 11 -6 11 -12 0z"/>
<path d="M1751 3254 c0 -11 3 -14 6 -6 3 7 2 16 -1 19 -3 4 -6 -2 -5 -13z"/>
<path d="M1050 3970 c-6 -11 -8 -20 -6 -20 3 0 10 9 16 20 6 11 8 20 6 20 -3
0 -10 -9 -16 -20z"/>
<path d="M1351 3844 c0 -11 3 -14 6 -6 3 7 2 16 -1 19 -3 4 -6 -2 -5 -13z"/>
<path d="M993 3833 c-15 -5 -17 -23 -4 -23 5 0 11 7 15 15 3 8 4 15 3 14 -1 0
-8 -3 -14 -6z"/>
<path d="M1020 3771 c0 -6 4 -13 10 -16 6 -3 7 1 4 9 -7 18 -14 21 -14 7z"/>
<path d="M890 3334 c-11 -13 -11 -17 0 -24 7 -4 19 -6 27 -3 11 4 11 9 1 22
-7 9 -13 17 -14 19 -1 1 -7 -5 -14 -14z"/>
<path d="M889 3278 c-1 -7 0 -17 1 -23 7 -34 7 -76 -1 -80 -5 -4 -9 -15 -9
-27 0 -16 3 -18 14 -9 7 6 21 9 30 5 22 -8 20 8 -4 33 -15 17 -17 23 -6 32 7
6 17 7 21 3 9 -8 4 8 -17 50 -14 29 -27 36 -29 16z m19 -33 c-3 -3 -9 2 -12
12 -6 14 -5 15 5 6 7 -7 10 -15 7 -18z"/>
<path d="M840 3250 c0 -5 4 -10 9 -10 6 0 13 5 16 10 3 6 -1 10 -9 10 -9 0
-16 -4 -16 -10z"/>
<path d="M715 3229 c-4 -6 -5 -12 -2 -15 2 -3 7 2 10 11 7 17 1 20 -8 4z"/>
<path d="M845 3210 c3 -5 8 -10 11 -10 2 0 4 5 4 10 0 6 -5 10 -11 10 -5 0 -7
-4 -4 -10z"/>
<path d="M800 3199 c0 -5 5 -7 10 -4 6 3 10 8 10 11 0 2 -4 4 -10 4 -5 0 -10
-5 -10 -11z"/>
<path d="M696 3175 c4 -8 7 -15 9 -15 2 0 5 7 9 15 3 9 0 15 -9 15 -9 0 -12
-6 -9 -15z"/>
<path d="M986 3183 c-12 -12 -6 -33 9 -33 8 0 15 6 15 14 0 17 -14 28 -24 19z"/>
<path d="M644 3134 c-4 -10 -11 -21 -15 -24 -4 -3 -10 -22 -14 -43 -6 -30 -4
-37 9 -37 9 0 16 -4 16 -10 0 -5 5 -10 11 -10 6 0 8 8 5 18 -13 44 -17 77 -8
64 7 -11 11 -7 16 13 8 33 -10 58 -20 29z"/>
<path d="M1086 3123 c8 -32 12 -39 19 -31 9 8 -6 58 -16 58 -5 0 -6 -12 -3
-27z"/>
<path d="M865 3099 c-4 -6 -5 -12 -2 -15 2 -3 7 2 10 11 7 17 1 20 -8 4z"/>
<path d="M915 3088 c4 -15 -3 -35 -20 -57 -30 -42 -32 -67 -5 -74 11 -3 17 -1
14 4 -6 10 21 41 28 33 3 -3 6 22 7 56 1 48 -2 60 -14 60 -11 0 -14 -7 -10
-22z"/>
<path d="M781 3074 c0 -11 3 -14 6 -6 3 7 2 16 -1 19 -3 4 -6 -2 -5 -13z"/>
<path d="M751 3054 c0 -11 3 -14 6 -6 3 7 2 16 -1 19 -3 4 -6 -2 -5 -13z"/>
<path d="M845 3020 c3 -5 8 -10 11 -10 2 0 4 5 4 10 0 6 -5 10 -11 10 -5 0 -7
-4 -4 -10z"/>
<path d="M660 2985 c0 -8 5 -15 10 -15 6 0 10 7 10 15 0 8 -4 15 -10 15 -5 0
-10 -7 -10 -15z"/>
<path d="M866 2933 c-4 -9 -3 -20 2 -25 6 -6 11 1 14 16 6 29 -6 35 -16 9z"/>
<path d="M591 2912 c-13 -25 -14 -42 -2 -42 8 0 23 52 16 58 -2 2 -8 -5 -14
-16z"/>
<path d="M930 2839 c0 -5 5 -7 10 -4 6 3 10 8 10 11 0 2 -4 4 -10 4 -5 0 -10
-5 -10 -11z"/>
<path d="M3200 3356 c0 -8 -3 -23 -6 -33 -5 -17 -5 -17 6 -1 6 10 10 21 10 24
-1 4 4 11 12 15 10 7 9 9 -4 9 -10 0 -18 -6 -18 -14z"/>
<path d="M1700 2941 c0 -6 5 -13 10 -16 6 -3 10 1 10 9 0 9 -4 16 -10 16 -5 0
-10 -4 -10 -9z"/>
<path d="M3235 2800 c-3 -5 1 -10 9 -10 9 0 16 5 16 10 0 6 -4 10 -9 10 -6 0
-13 -4 -16 -10z"/>
<path d="M1660 2772 c0 -5 7 -16 16 -23 14 -12 16 -11 13 5 -4 20 -29 35 -29
18z"/>
<path d="M1703 2708 c2 -7 10 -12 17 -10 7 2 17 -3 21 -10 6 -9 9 -10 9 -1 0
7 -9 17 -19 23 -26 13 -34 13 -28 -2z"/>
<path d="M1770 2440 c0 -5 5 -10 11 -10 5 0 7 5 4 10 -3 6 -8 10 -11 10 -2 0
-4 -4 -4 -10z"/>
<path d="M3350 2621 c0 -5 5 -13 10 -16 6 -3 10 -2 10 4 0 5 -4 13 -10 16 -5
3 -10 2 -10 -4z"/>
<path d="M1625 2390 c3 -5 8 -10 11 -10 2 0 4 5 4 10 0 6 -5 10 -11 10 -5 0
-7 -4 -4 -10z"/>
<path d="M1597 2326 c-4 -10 -7 -25 -6 -34 0 -11 4 -9 10 7 5 13 8 29 6 35 -2
5 -6 2 -10 -8z"/>
<path d="M1507 2273 c-13 -13 -7 -32 8 -27 8 4 15 12 15 20 0 15 -12 19 -23 7z"/>
<path d="M1556 2199 c-3 -17 -6 -48 -5 -68 l1 -36 8 30 c14 51 19 105 11 105
-5 0 -11 -14 -15 -31z"/>
<path d="M1636 2152 c-3 -3 -6 -9 -6 -14 0 -11 37 -10 44 1 6 10 -30 22 -38
13z"/>
<path d="M1617 2086 c-3 -8 2 -16 14 -19 16 -4 17 -2 8 14 -12 23 -15 23 -22
5z"/>
<path d="M1607 2027 c-3 -8 1 -14 9 -14 8 0 14 6 14 14 0 7 -4 13 -9 13 -5 0
-11 -6 -14 -13z"/>
<path d="M1650 2031 c0 -6 4 -13 10 -16 6 -3 7 1 4 9 -7 18 -14 21 -14 7z"/>
<path d="M1440 5132 c0 -5 -10 -14 -22 -21 -69 -37 -129 -82 -122 -92 5 -9 44
9 56 26 4 6 14 10 21 10 8 0 30 15 51 32 35 32 46 53 26 53 -5 0 -10 -4 -10
-8z"/>
<path d="M1723 5113 c9 -2 23 -2 30 0 6 3 -1 5 -18 5 -16 0 -22 -2 -12 -5z"/>
<path d="M1865 5090 c3 -5 8 -10 11 -10 2 0 4 5 4 10 0 6 -5 10 -11 10 -5 0
-7 -4 -4 -10z"/>
<path d="M1422 4927 c8 -16 12 -17 19 -6 13 21 11 25 -10 25 -16 0 -18 -4 -9
-19z"/>
<path d="M1425 4897 c-41 -30 -56 -50 -43 -59 13 -7 54 6 50 16 -2 4 8 16 22
27 50 39 23 54 -29 16z"/>
<path d="M1586 4911 c-3 -5 4 -11 16 -14 17 -5 19 -9 10 -20 -14 -16 -6 -27
20 -27 10 0 18 7 18 15 0 8 0 18 1 23 1 11 -59 33 -65 23z"/>
<path d="M1230 4890 c0 -5 4 -10 9 -10 6 0 13 5 16 10 3 6 -1 10 -9 10 -9 0
-16 -4 -16 -10z"/>
<path d="M1533 4882 c-27 -14 -30 -19 -19 -34 9 -12 16 -14 30 -6 12 7 21 7
29 -1 15 -15 27 -14 27 3 0 7 -15 18 -32 24 l-33 11 33 -5 c33 -6 45 9 16 20
-19 7 -12 9 -51 -12z"/>
</g>
</svg>
