<?xml version="1.0" encoding="UTF-8" standalone="no"?>
<svg
   xmlns:dc="http://purl.org/dc/elements/1.1/"
   xmlns:cc="http://creativecommons.org/ns#"
   xmlns:rdf="http://www.w3.org/1999/02/22-rdf-syntax-ns#"
   xmlns:svg="http://www.w3.org/2000/svg"
   xmlns="http://www.w3.org/2000/svg"
   xmlns:sodipodi="http://sodipodi.sourceforge.net/DTD/sodipodi-0.dtd"
   xmlns:inkscape="http://www.inkscape.org/namespaces/inkscape"
   version="1.0"
   width="212.000000pt"
   height="221.000000pt"
   viewBox="0 0 212.000000 221.000000"
   preserveAspectRatio="xMidYMid meet"
   id="svg238"
   sodipodi:docname="NewtonFull.svg"
   inkscape:version="1.0.2 (1.0.2+r75+1)">
  <metadata
     id="metadata244">
    <rdf:RDF>
      <cc:Work
         rdf:about="">
        <dc:format>image/svg+xml</dc:format>
        <dc:type
           rdf:resource="http://purl.org/dc/dcmitype/StillImage" />
        <dc:title></dc:title>
      </cc:Work>
    </rdf:RDF>
  </metadata>
  <defs
     id="defs242" />
  <sodipodi:namedview
     pagecolor="#ffffff"
     bordercolor="#666666"
     borderopacity="1"
     objecttolerance="10"
     gridtolerance="10"
     guidetolerance="10"
     inkscape:pageopacity="0"
     inkscape:pageshadow="2"
     inkscape:window-width="1366"
     inkscape:window-height="731"
     id="namedview240"
     showgrid="false"
     inkscape:zoom="0.97065011"
     inkscape:cx="271.46469"
     inkscape:cy="173.63495"
     inkscape:window-x="0"
     inkscape:window-y="0"
     inkscape:window-maximized="1"
     inkscape:current-layer="svg238"
     inkscape:document-rotation="0" />
  <path
     style="fill:none;stroke:#000000;stroke-width:0.75px;stroke-linecap:butt;stroke-linejoin:miter;stroke-opacity:1"
     d="m 1.2556034,202.12965 6.5622454,-10.02067 c 0,0 20.8577052,-12.25354 24.9789442,-12.39647 4.121239,-0.14293 18.094699,-8.70288 18.094699,-8.70288 l 7.162072,-4.82897 6.476841,-8.93605 -8.494056,3.40627 -1.321352,1.33539 -3.071424,0.49035 -6.385146,-1.40752 -11.832413,-5.67597 -6.562006,-5.15192 -4.539227,-5.04541 -2.486088,-4.71593 -1.294642,-4.39059 -0.0975,-7.39598 -0.147475,-2.5977 0.990492,-5.50269 1.774306,5.10777 4.053763,3.54822 2.563323,0.54756 2.162817,-1.18446 -0.691036,-3.27578 -2.30153,-5.744 -0.367383,-4.34514 2.122315,-4.1083 3.454578,-3.15276 4.024107,-2.09529 5.164291,-2.45423 -1.169512,-9.582636 -0.278301,-8.627033 2.029822,-7.00638 2.096803,-2.848583 -0.09968,-6.439118 0.479469,-4.018741 2.699169,-3.404407 4.751863,-2.814321 5.659674,-4.451657 1.702084,-6.254005 -0.140187,-6.957855 0.46365,-7.564081 6.845812,-8.993744 5.532685,-4.396924 2.142237,1.947847 -0.737253,4.973756 1.900984,-8.023291 5.88711,-6.035369 7.47621,-2.664407 h 5.019405 l -2.194935,5.720002 4.044645,-7.2778129 4.861297,-4.804981 6.30612,-1.73923 6.91674,1.2320186 5.19664,3.2151955 5.41811,0.9550139 4.17038,0.9713107 3.80819,3.1440862 3.77901,1.01758 4.5297,2.7284 4.09332,3.89556 4.99262,4.953211 4.11433,3.695228 0.80098,7.403908 0.76784,5.772597 c 0,0 0.95822,3.937148 4.42388,5.158144 3.46566,1.220997 -1.14336,-1.738082 -1.14336,-1.738082 l -1.89626,-1.707128 c 0,0 -1.00796,-3.584423 3.55575,-1.444343 4.56371,2.140079 6.08289,4.761767 6.08289,4.761767 l 2.63062,3.129316 0.87491,4.147416 -1.10099,4.798869 -3.77328,9.368276 3.87801,7.52266 c 0,0 3.52142,10.593698 3.71367,11.85006 0.19225,1.256363 -1.50305,9.725356 -1.50305,9.725356 l -0.042,1.173135 1.06137,2.990986 10.06862,14.03782 4.34108,6.47096 3.4559,7.53218 0.61791,4.44099 -0.30489,5.586 -0.55033,5.42301 -1.74065,5.88354 -2.88331,4.23238 -4.62943,5.68027 -7.6449,3.25954 -2.4739,1.09923 17.13448,7.45898 11.01295,6.47615 -0.35295,0.3105 c 0,0 -25.41662,-14.99325 -30.81664,-13.42979 -5.40003,1.56346 -11.37201,-0.15473 -11.37201,-0.15473 l -2.70944,-1.73406 6.164,-1.65628 0.93666,-2.23385 -11.18271,-5.44661 -6.23202,-5.49485 2.72401,-8.83923 13.31603,11.16943 3.17509,6.07903 -3.03257,-6.92979 -4.59668,-3.63988 -7.07758,-6.14289 c 0,0 -2.29921,-11.37305 -2.86075,-16.38946 -0.56154,-5.01639 -14.30095,7.56211 -14.30095,7.56211 l -4.52807,4.24372 -10.96332,12.15908 -0.58108,3.38545 0.19003,3.17504 -4.57895,3.07078 -5.9658,4.59541 -5.864119,9.79246 -7.40778,10.33629 -12.22809,17.26982 -4.783879,7.25448 -2.962695,4.30561 c 0,0 -1.98415,2.56088 -0.589818,-4.99418 1.39433,-7.55505 1.088113,-15.63887 1.088113,-15.63887 l 1.235314,-10.3981 2.209269,-15.39981 1.756661,-11.01906 2.4435,-11.78527 c 0,0 4.508085,-0.75422 6.50727,1.31045 1.999185,2.06467 1.645777,2.28163 1.645777,2.28163 0,0 -7.075522,-6.112 -9.3108,-4.25984 -2.235277,1.85216 -3.927006,-2.33977 -3.927006,-2.33977 l -1.141782,-9.28566 2.072983,-3.39228 3.872405,-6.34255 3.665678,7.64548 6.580695,15.3378 3.592275,8.77824 c 0,0 0.617618,0.40794 0.217643,2.92708 -0.399975,2.51915 -0.928643,1.58892 -3.4074,5.70999 -2.478758,4.12108 -3.985606,10.68158 -3.985606,10.68158 l -1.25664,5.17453 -1.926412,5.81866 6.471668,-13.67046 6.17853,-4.77653 5.51526,-3.78242 7.234656,-7.96873 6.37343,-4.47815 10.65689,-9.95962 6.55994,-6.64982 2.51405,-3.72742 0.51241,-1.13301 c 3.48636,-5.8028 6.22942,-10.60782 6.22942,-10.60782 l 1.59063,-4.41343 3.31362,-12.798116 1.24588,-9.396968 0.53803,-5.06091 0.91697,-9.983329 4.11261,2.697806 c 0,0 2.84681,2.530073 2.71767,3.926025 -0.12915,1.395953 -0.96632,6.09087 -0.96632,6.09087 l -2.88642,3.281663 0.81131,2.80929 0.8613,1.209758 6.49705,-2.052203 -5.9706,1.48995 -1.7208,-3.158902 3.21595,-4.090643 0.52902,-4.637865 -0.77638,-2.979023 -4.13987,-3.946684 -3.02563,-4.002738 -0.16065,-5.698967 c 0,0 -0.10958,-1.232895 -0.27818,-0.553125 -0.16859,0.67977 -0.75666,2.453631 -0.75666,2.453631 0,0 -1.17154,0.542448 -3.07291,0.0022 -1.90137,-0.540259 -8.78385,-0.828462 -8.78385,-0.828462 l -4.09671,0.20221 -5.21456,1.822649 -1.43614,-0.819861 -0.71086,-1.500208 1.65458,6.306127 0.81676,0.417511 6.57844,-3.139059 6.2391,-1.350856 5.60889,1.287858 -0.71749,3.735595 c 0,0 -6.52331,-5.621909 -13.68113,1.287602 4.31902,-3.058093 5.63402,-3.241734 5.63402,-3.241734 l 5.12555,0.103865 3.00227,1.604425 1.44066,-5.014599 2.57305,-1.545249 0.11365,-6.744879 -1.80289,-6.736231 -4.81912,-4.215113 -4.40959,-2.184474 -1.82634,-1.037978 2.4776,-3.59153 1.24696,-4.555693 -1.32895,-6.397893 -2.57424,-5.748165 -1.42314,-3.380399 0.74453,-4.133126 1.37302,-4.960255 -1.06747,-0.510024 -0.48097,5.202625 -1.24665,4.134841 1.78802,4.176307 3.16142,7.293148 0.67935,4.917977 c 0,0 -1.55866,7.565979 -6.28982,8.798784 -4.73115,1.232804 -10.17178,1.018813 -10.17178,1.018813 l -3.11205,-1.163523 2.15821,-1.617115 c 0,0 4.94792,-0.742816 4.24837,-1.392976 -0.69956,-0.65016 -5.53245,0.310616 -5.53245,0.310616 0,0 -6.89012,-1.154041 -7.36114,-1.302636 -0.47103,-0.148595 -5.07722,-0.512481 -3.68037,-1.814315 1.39685,-1.301834 5.20972,-3.052643 5.20972,-3.052643 0,0 2.70703,-1.466795 -0.18444,-2.552753 -2.89147,-1.085957 -8.28092,1.749688 -8.28092,1.749688 l -2.64653,1.712077 c 0,0 -1.02027,-3.462789 3.21242,-7.105582 4.2327,-3.642793 6.99214,-4.336355 6.99214,-4.336355 0,0 0.97053,-0.81126 -0.42194,-0.502303 -1.39246,0.308958 -6.12805,4.063505 -6.12805,4.063505 l -2.92769,3.127755 -1.32435,3.3817 c 0,0 -4.64131,2.548218 -6.555367,2.524994 -1.914056,-0.02322 -7.113077,-1.347055 -7.648384,5.476439 -0.535306,6.823493 -1.793849,16.481505 -1.793849,16.481505 l 4.29724,3.931973 c 0,0 2.038464,-3.076879 7.48868,-2.538761 5.45022,0.538117 13.30382,1.16117 13.30382,1.16117 l 3.92387,1.59886 c 0,0 1.08089,2.982971 2.67711,1.604703 1.59622,-1.378267 -0.0744,1.143228 -0.0744,1.143228 l -1.60167,1.630487 c 0,0 -2.58015,-0.09142 -5.98994,-1.346173 C 105.588,66.930626 98.602432,66.383253 98.602432,66.383253 l -5.863823,-0.184257 -3.224118,-0.286366 4.660405,4.348975 c 0,0 8.343364,-4.985805 16.878594,1.513985 -3.219,-2.426055 -5.56326,-3.073832 -5.56326,-3.073832 0,0 -5.37171,-0.678758 -6.439009,-0.243651 -1.067302,0.435107 -4.876327,1.803499 -4.876327,1.803499 l -4.660403,-4.348975 -5.013735,-4.395264 c -3.0777,7.791746 -7.054433,16.165716 -7.054433,16.165716 l -1.546417,4.309253 -0.05145,1.783342 3.295785,11.244023 0.0053,6.790399 -3.605648,5.22309 -3.714196,6.41338 -1.210297,2.97803 0.06442,4.21336 1.673043,5.4538 1.304971,2.52122 3.771897,-5.67771 3.847575,-5.1517 -0.575813,-7.86066 -1.099792,-6.8249 2.54175,10.68058 3.848857,4.05162 8.748451,7.09226 5.909011,4.37979 8.50061,4.65834 10.31801,0.28938 11.24721,-6.06795 c 0,0 7.48277,-22.02069 0.49742,-15.36837 -6.28331,5.98376 -26.14405,0.95259 -26.14405,0.95259 0,0 -0.3177,-3.94526 0.72727,-7.03559 1.4619,-10.15577 3.24274,-12.284304 3.24274,-12.284304 0,0 4.71197,-6.261847 3.30188,-3.443677 -1.41009,2.81817 0.66359,4.929157 0.66359,4.929157 l 1.06392,1.259573 0.7864,-1.136933 c 0.86307,-1.193533 1.40152,-0.615997 1.95292,-0.109117 l 1.54458,2.308432 3.73312,2.503709 c 0.68795,0.10212 1.37273,0.1029 2.02647,-0.885569 0,0 1.57156,-3.251126 1.82058,-3.766027 0.60526,-1.251496 -1.15651,-8.019777 -1.2027,-7.967918 l -0.10038,-8.87112 0.41395,-3.814823 4.7489,-1.340663 3.0407,-2.288861 c 0.89862,-0.238671 1.63409,-0.552359 2.91441,-0.615519 l 2.99852,0.07595 0.91784,0.270933 0.85347,0.311125 0.88835,0.535079 0.91739,0.790107 0.53163,0.198946 0.49107,-1.796058 1.0886,-4.005047 1.91322,-1.01473 0.0294,3.855755 2.94634,3.719642 5.19804,5.280456 -3.37434,11.461729 -0.29831,3.470817 c -6.52403,6.812546 -8.36929,14.345696 -8.36929,14.345696 0,0 -0.46803,6.00183 0.69132,10.91195 1.15936,4.91011 2.82227,13.82693 2.82227,13.82693 l 1.89918,8.44452 8.58262,7.08793 c 0,0 3.38593,2.53428 4.07573,4.04351 0.68979,1.50924 1.37749,4.02244 1.37749,4.02244 l -2.73706,4.76608 -5.51679,1.31751 2.06223,2.07283 c 0,0 4.29553,1.46361 7.52273,1.09546 3.22719,-0.36814 3.33655,-1.95106 6.09388,-0.99785 2.75733,0.95322 17.00658,6.75229 17.00658,6.75229 l 10.55848,6.19442 10.58387,6.53428 c 0,0 2.22509,1.21709 2.92915,3.22597 0.70407,2.00887 -0.53357,21.65083 -0.53357,21.65083 l -0.52077,7.17795 -192.316616,-0.70057 c 0,0 -16.8021718,-4.58934 -15.9744051,-13.34097"
     id="path169"
     sodipodi:nodetypes="ccsccccccccccccccccccccccccccccccccccccccccccccccccccccccccccccccsccsccccccscccccccccccccccccsccccccccccccsccccccccccccscccccscscccccccsscccccccccccccccccccscccccccccccccscscccccccccccccccccccccccccccccccccccscccscsscsccscscccssccsccsccsccccccscccccccccccccccccccccccccscccscccccccscccccccccccccccccccccscccsccccsscccscccc" />
</svg>
