<?xml version="1.0" encoding="UTF-8" standalone="no"?>
<svg
   xmlns:dc="http://purl.org/dc/elements/1.1/"
   xmlns:cc="http://creativecommons.org/ns#"
   xmlns:rdf="http://www.w3.org/1999/02/22-rdf-syntax-ns#"
   xmlns:svg="http://www.w3.org/2000/svg"
   xmlns="http://www.w3.org/2000/svg"
   xmlns:sodipodi="http://sodipodi.sourceforge.net/DTD/sodipodi-0.dtd"
   xmlns:inkscape="http://www.inkscape.org/namespaces/inkscape"
   version="1.0"
   width="212.000000pt"
   height="221.000000pt"
   viewBox="0 0 212.000000 221.000000"
   preserveAspectRatio="xMidYMid meet"
   id="svg238"
   sodipodi:docname="NewtonHalf.svg"
   inkscape:version="1.0.2 (1.0.2+r75+1)">
  <metadata
     id="metadata244">
    <rdf:RDF>
      <cc:Work
         rdf:about="">
        <dc:format>image/svg+xml</dc:format>
        <dc:type
           rdf:resource="http://purl.org/dc/dcmitype/StillImage" />
        <dc:title></dc:title>
      </cc:Work>
    </rdf:RDF>
  </metadata>
  <defs
     id="defs242" />
  <sodipodi:namedview
     pagecolor="#ffffff"
     bordercolor="#666666"
     borderopacity="1"
     objecttolerance="10"
     gridtolerance="10"
     guidetolerance="10"
     inkscape:pageopacity="0"
     inkscape:pageshadow="2"
     inkscape:window-width="1366"
     inkscape:window-height="768"
     id="namedview240"
     showgrid="false"
     inkscape:zoom="1.3711171"
     inkscape:cx="130.29936"
     inkscape:cy="126.53487"
     inkscape:window-x="0"
     inkscape:window-y="0"
     inkscape:window-maximized="1"
     inkscape:current-layer="svg238" />
  <path
     style="fill:none;stroke:#000000;stroke-width:0.75px;stroke-linecap:butt;stroke-linejoin:miter;stroke-opacity:1"
     d="m 23.431456,210.61508 c 8.32024,-12.5543 8.79975,-11.80827 8.79975,-11.80827 0,0 4.11125,-3.50001 14.09741,-8.00408 9.98616,-4.50407 18.0396,-6.99247 23.68015,-10.18421 5.64056,-3.19174 12.44199,-9.30975 12.44199,-9.30975 0,0 13.77295,-18.86992 13.85546,-19.43259 0.0825,-0.56267 -9.89703,12.62736 -9.89703,12.62736 0,0 -9.55315,7.13371 -15.24283,5.34759 -5.68968,-1.78612 -16.66337,-7.32582 -16.66337,-7.32582 l -3.47301,-2.71322 -4.65118,-4.50911 -2.58798,-3.82892 -0.85294,-1.75186 -1.0549,-2.36865 -0.27193,-1.29594 -0.37629,-1.94355 -0.41381,-1.65443 -0.0648,-3.01731 -0.0551,-2.45562 v -2.31979 l 0.25263,-2.7946 0.67781,-3.45723 2.01354,4.60005 2.37063,2.63995 2.86376,1.6986 2.5082,-0.30774 0.492,-1.1163 -1.44575,-2.75831 -1.20206,-3.10669 -0.80261,-3.84641 -0.042,-2.63785 0.52379,-2.58342 1.26302,-2.06975 1.7951,-1.72748 2.17316,-1.68363 3.20075,-1.92172 3.67983,-1.16807 c 0,0 3.33574,-0.9404 1.81587,-6.56623 -1.51987,-5.62583 -1.44478,-9.808577 -1.44478,-9.808577 0,0 0.18657,-6.989213 2.93596,-10.45155 2.7494,-3.462341 2.09296,-5.52965 2.09296,-5.52965 l -0.30874,-3.253232 0.0905,-1.284805 0.23248,-0.959071 0.34317,-1.406192 0.70502,-1.559409 1.43224,-1.773862 2.71873,-1.802252 2.44828,-1.4213 2.24045,-1.547217 2.87328,-2.308366 1.35302,-2.61114 0.81321,-2.591016 0.0626,-2.848352 -0.17261,-3.006598 c 0,0 0.001,-7.263192 0.57456,-9.076745 0.57313,-1.813553 4.55264,-8.28202 4.55264,-8.28202 0,0 6.0522,-7.364307 8.60436,-5.830088 2.55215,1.534218 0.73601,8.267182 0.73601,8.267182 l 0.0116,-2.092501 -0.0483,-3.947682 0.46004,-2.254068 0.38501,-1.012364 c 0,0 6.346884,-6.626157 9.289094,-8.120779 2.9422,-1.494621 9.52387,-1.140515 9.52387,-1.140515 0,0 0.56039,2.767297 -1.42614,5.067615 -1.98652,2.300318 2.62119,-5.316333 2.62119,-5.316333 0,0 0.9637,-1.783696 2.35969,-3.122206 1.396,-1.33851 8.09055,-6.2635958 13.58659,-4.100464 5.49605,2.163131 7.60368,3.638228 7.60368,3.638228 0,0 2.2904,1.257216 6.87069,1.179905 4.58029,-0.07731 7.29391,5.72444 7.29391,5.72444 l 0.53309,2.347545 -1.44413,4.710935 -0.25629,0.592182 v 0.688872 l 0.12888,0.636516 0.54546,0.682154 0.5075,1.010026 c 0,0 6.07769,10.230185 4.385,14.736645 -1.69268,4.506459 -3.52748,6.121528 -3.52748,6.121528 0,0 8.43193,2.759114 11.9523,9.628687 3.52037,6.869573 0.40987,6.692088 0.40987,6.692088 l 0.56741,2.713934 -0.84326,2.069025 -0.33686,0.09267 -0.5872,0.04102 h -0.85382 l -2.0714,-0.219897 -3.47956,-0.497784 -4.24486,-0.174494 -3.28845,0.05245 -3.55639,0.687816 -2.06128,0.924066 -0.51897,0.476055 -1.04296,-0.456456 -1.48434,-1.780019 1.32941,5.934744 c 0,0 0.41598,1.490358 1.84217,0.830671 1.42619,-0.659687 4.84904,-2.531312 4.84904,-2.531312 l 2.48692,-0.83284 2.69576,-0.573352 c 0,0 5.22199,-0.73906 7.97124,1.408176 2.74925,2.147236 3.47173,2.924334 3.47173,2.924334 l -1.41541,18.370432 -1.5662,9.053977 c 0,0 -1.84836,8.97669 -4.93335,15.17758 -3.08499,6.2009 -5.98223,10.36755 -7.91371,11.74356 -1.93148,1.37603 -4.35798,4.71227 -8.58321,5.46285 -4.22523,0.75057 -3.89295,0.71153 -3.89295,0.71153 l -3.92365,0.22431 -3.78999,-0.10595 -1.08633,-0.11373 -1.60728,-0.3114 -1.74884,-0.67073 -1.80232,-0.94309 -5.09634,-3.30123 -5.94131,-4.33236 -4.97197,-4.10408 -3.93006,-3.71426 c 0,0 -2.64518,-2.03014 -3.34376,-6.35941 -0.69856,-4.32926 -2.31263,-17.373199 -2.31263,-17.373199 l -0.683654,-2.906453 -1.01472,-2.572868 -1.20573,-2.97156 -0.25873,-0.693067 1.5326,-4.08792 1.873134,-4.009389 3.24099,-6.953111 1.98537,-4.362952 4.58063,2.380704 c 0,0 1.04818,-2.089271 3.40942,-2.838185 2.36125,-0.748914 8.83702,-0.285939 8.83702,-0.285939 l 9.18331,1.163145 2.03565,0.517881 1.56651,1.156578 c 0,0 0.46671,1.883124 2.40437,0.549792 1.93765,-1.333331 1.42597,0.146515 1.42597,0.146515 l -2.13831,3.321564 -1.41573,0.49219 -6.54697,-1.795637 -4.76437,-1.05429 -6.19305,-0.575674 -3.43616,0.04675 0.89918,3.987789 3.33094,-1.529527 2.31299,-0.739799 2.87792,-0.05326 1.68199,0.470133 2.25449,1.012577 -2.65105,-0.0044 -1.16532,0.263165 -0.61508,0.503488 -0.1843,0.407023 -0.14431,0.611263 0.18108,0.429938 1.16323,-0.241201 0.93943,-0.273627 0.51207,0.140888 -0.0515,0.632739 -0.4275,0.490514 -0.76856,0.501612 -1.53191,0.509182 -1.54931,0.192548 -1.0359,-0.27414 -0.4374,-0.556559 -0.13473,-1.300574 -0.0953,-1.22367 c 0,0 -0.0548,-0.516823 -2.31366,-0.137839 -2.25887,0.378984 3.38779,5.03909 3.38779,5.03909 l 0.76976,-0.24843 1.82083,0.0067 1.57281,0.139305 0.11983,0.17034 -0.37673,0.192 -1.78857,0.16332 -1.71143,-0.16332 v 0 l -6.86498,0.80103 2.89351,1.50582 c 0,0 4.23726,2.930483 9.42501,0.328845 5.18775,-2.601637 3.59448,-1.281375 3.59448,-1.281375 l -2.02869,2.045018 c 0,0 -2.64309,1.679085 -5.58234,1.436302 -2.93925,-0.242775 -5.62189,-1.48791 -5.62189,-1.48791 l -2.6151,-2.047725 c 0,0 15.90292,12.739373 8.49104,20.095832 -7.41187,7.35646 5.0513,-5.487106 5.0513,-5.487106 l 1.07817,-0.57774 0.41608,0.35229 -0.41027,1.780666 -0.44209,1.13264 -0.0488,0.70205 0.0158,0.74811 0.31768,0.71619 0.93139,0.80221 0.69942,0.41635 0.32181,-0.005 0.10446,-0.66579 0.13112,-0.64211 0.32691,-0.32015 0.56773,-0.0975 0.84662,0.15219 0.93811,0.41122 0.72121,0.36107 0.70151,0.60075 c 0,0 3.35546,3.19818 4.00408,3.67318 0.64862,0.475 1.43441,0.72328 1.43441,0.72328 l 0.52449,-0.0684 0.61902,-0.35332 c 0,0 2.88873,-3.44005 2.81311,-4.81699 -0.0756,-1.37694 -0.30793,-4.02519 -0.98228,-5.470664 -0.67436,-1.445482 -0.49508,-10.510215 -0.49508,-10.510215 l 0.49014,-7.415884 0.23106,-0.311391"
     id="path474" />
</svg>
